solid OpenSCAD_Model
  facet normal -0 0 -1
    outer loop
      vertex -4.85321 7 0
      vertex -5 6.84367 0
      vertex -5 7 0
    endloop
  endfacet
  facet normal -0 0 -1
    outer loop
      vertex -1.98422 1.74933 0
      vertex -6.96057 1.37334 0
      vertex -1.98422 2.25066 0
    endloop
  endfacet
  facet normal 0 0 -1
    outer loop
      vertex -1.98422 2.25066 0
      vertex -4 4.98692 0
      vertex -3.18712 5.85255 0
    endloop
  endfacet
  facet normal 0 0 -1
    outer loop
      vertex -1.55493 8.81354 0
      vertex -3.18712 5.85255 0
      vertex -2.74692 8.42624 0
    endloop
  endfacet
  facet normal 0 0 -1
    outer loop
      vertex -3.18712 5.85255 0
      vertex -3.20055 8.21278 0
      vertex -2.74692 8.42624 0
    endloop
  endfacet
  facet normal 0 0 -1
    outer loop
      vertex -4.25877 7.54121 0
      vertex -3.18712 5.85255 0
      vertex -4 4.98692 0
    endloop
  endfacet
  facet normal 0 0 -1
    outer loop
      vertex -3.18712 5.85255 0
      vertex -4.25877 7.54121 0
      vertex -3.20055 8.21278 0
    endloop
  endfacet
  facet normal -0 0 -1
    outer loop
      vertex -4 -0.986923 0
      vertex -5.79768 -1.90244 0
      vertex -4 -0.986919 0
    endloop
  endfacet
  facet normal 0 -0 -1
    outer loop
      vertex -4.64507 7.22165 0
      vertex -4 4.98692 0
      vertex -4.85321 7 0
    endloop
  endfacet
  facet normal 0 0 -1
    outer loop
      vertex -4 4.98692 0
      vertex -4.64507 7.22165 0
      vertex -4.25877 7.54121 0
    endloop
  endfacet
  facet normal 0 0 -1
    outer loop
      vertex -4 4.98692 0
      vertex -5 6.84367 0
      vertex -4.85321 7 0
    endloop
  endfacet
  facet normal 0 0 -1
    outer loop
      vertex -6.40149 -0.804138 0
      vertex -4 -0.986919 0
      vertex -5.79768 -1.90244 0
    endloop
  endfacet
  facet normal 0 0 -1
    outer loop
      vertex -6.58604 -0.337997 0
      vertex -4 -0.986919 0
      vertex -6.40149 -0.804138 0
    endloop
  endfacet
  facet normal 0 0 -1
    outer loop
      vertex -6.89774 0.875961 0
      vertex -4 -0.986919 0
      vertex -6.58604 -0.337997 0
    endloop
  endfacet
  facet normal 0 0 -1
    outer loop
      vertex -4 4.98692 0
      vertex -5.50302 6.30801 0
      vertex -5 6.84367 0
    endloop
  endfacet
  facet normal 0 -0 -1
    outer loop
      vertex -5.79768 5.90244 0
      vertex -4 4.98692 0
      vertex -6.40149 4.80414 0
    endloop
  endfacet
  facet normal 0 -0 -1
    outer loop
      vertex -5.50302 6.30801 0
      vertex -4 4.98692 0
      vertex -5.79768 5.90244 0
    endloop
  endfacet
  facet normal 0 0 -1
    outer loop
      vertex -6.96057 1.37334 0
      vertex -4 -0.986919 0
      vertex -6.89774 0.875961 0
    endloop
  endfacet
  facet normal 0 0 -1
    outer loop
      vertex -4 4.98692 0
      vertex -6.58604 4.338 0
      vertex -6.40149 4.80414 0
    endloop
  endfacet
  facet normal 0 0 -1
    outer loop
      vertex -6.96057 2.62666 0
      vertex -1.98422 2.25066 0
      vertex -6.96057 1.37334 0
    endloop
  endfacet
  facet normal 0 0 -1
    outer loop
      vertex -4 4.98692 0
      vertex -6.89774 3.12404 0
      vertex -6.58604 4.338 0
    endloop
  endfacet
  facet normal 0 0 -1
    outer loop
      vertex -1.98422 2.25066 0
      vertex -6.96057 2.62666 0
      vertex -4 4.98692 0
    endloop
  endfacet
  facet normal 0 0 -1
    outer loop
      vertex -4 4.98692 0
      vertex -6.96057 2.62666 0
      vertex -6.89774 3.12404 0
    endloop
  endfacet
  facet normal -0 0 -1
    outer loop
      vertex 4.54337 4 0
      vertex 1.75261 2.9635 0
      vertex 4.38153 4.40877 0
    endloop
  endfacet
  facet normal 0 0 -1
    outer loop
      vertex 1.45793 3.36908 0
      vertex 4.38153 4.40877 0
      vertex 1.75261 2.9635 0
    endloop
  endfacet
  facet normal 0 0 -1
    outer loop
      vertex 1.07164 3.68864 0
      vertex 4.38153 4.40877 0
      vertex 1.45793 3.36908 0
    endloop
  endfacet
  facet normal -0 0 -1
    outer loop
      vertex 4.38153 4.40877 0
      vertex 1.07164 3.68864 0
      vertex 2.39664 8.56493 0
    endloop
  endfacet
  facet normal 0 0 -1
    outer loop
      vertex 0.618027 3.9021 0
      vertex 2.39664 8.56493 0
      vertex 1.07164 3.68864 0
    endloop
  endfacet
  facet normal -0 0 -1
    outer loop
      vertex 2.39664 8.56493 0
      vertex 0.618027 3.9021 0
      vertex 1.91983 8.71985 0
    endloop
  endfacet
  facet normal -0 0 -1
    outer loop
      vertex 1.91983 8.71985 0
      vertex 0.618027 3.9021 0
      vertex 0.688705 8.9547 0
    endloop
  endfacet
  facet normal 0 0 -1
    outer loop
      vertex 0.12558 3.99605 0
      vertex 0.688705 8.9547 0
      vertex 0.618027 3.9021 0
    endloop
  endfacet
  facet normal -0 0 -1
    outer loop
      vertex 0.688705 8.9547 0
      vertex 0.12558 3.99605 0
      vertex 0.188354 8.98618 0
    endloop
  endfacet
  facet normal 0 0 -1
    outer loop
      vertex -0.374756 3.96457 0
      vertex 0.188354 8.98618 0
      vertex 0.12558 3.99605 0
    endloop
  endfacet
  facet normal 0 0 -1
    outer loop
      vertex -3.18712 5.85255 0
      vertex -0.374756 3.96457 0
      vertex -0.851547 3.80965 0
    endloop
  endfacet
  facet normal 0 0 -1
    outer loop
      vertex -0.374756 3.96457 0
      vertex -1.0625 8.90747 0
      vertex 0.188354 8.98618 0
    endloop
  endfacet
  facet normal 0 0 -1
    outer loop
      vertex -3.18712 5.85255 0
      vertex -0.851547 3.80965 0
      vertex -1.27484 3.54102 0
    endloop
  endfacet
  facet normal 0 0 -1
    outer loop
      vertex -3.18712 5.85255 0
      vertex -1.0625 8.90747 0
      vertex -0.374756 3.96457 0
    endloop
  endfacet
  facet normal 0 0 -1
    outer loop
      vertex -3.18712 5.85255 0
      vertex -1.27484 3.54102 0
      vertex -1.61803 3.17557 0
    endloop
  endfacet
  facet normal 0 0 -1
    outer loop
      vertex -3.18712 5.85255 0
      vertex -1.61803 3.17557 0
      vertex -1.85954 2.73624 0
    endloop
  endfacet
  facet normal 0 0 -1
    outer loop
      vertex -3.18712 5.85255 0
      vertex -1.85954 2.73624 0
      vertex -1.98422 2.25066 0
    endloop
  endfacet
  facet normal -0 0 -1
    outer loop
      vertex -1.85954 1.26375 0
      vertex -4 -0.986919 0
      vertex -1.98422 1.74933 0
    endloop
  endfacet
  facet normal 0 0 -1
    outer loop
      vertex -6.96057 1.37334 0
      vertex -1.98422 1.74933 0
      vertex -4 -0.986919 0
    endloop
  endfacet
  facet normal 0 0 -1
    outer loop
      vertex -1.0625 8.90747 0
      vertex -3.18712 5.85255 0
      vertex -1.55493 8.81354 0
    endloop
  endfacet
  facet normal 0 0 -1
    outer loop
      vertex -3.20055 -4.21278 0
      vertex -3.18712 -1.85255 0
      vertex -2.74692 -4.42624 0
    endloop
  endfacet
  facet normal 0 0 -1
    outer loop
      vertex -4.25877 -3.54121 0
      vertex -3.18712 -1.85255 0
      vertex -3.20055 -4.21278 0
    endloop
  endfacet
  facet normal -0 0 -1
    outer loop
      vertex -3.18712 -1.85255 0
      vertex -4.64507 -3.22165 0
      vertex -4 -0.986923 0
    endloop
  endfacet
  facet normal 0 0 -1
    outer loop
      vertex -5.50302 -2.30801 0
      vertex -4 -0.986923 0
      vertex -4.64507 -3.22165 0
    endloop
  endfacet
  facet normal 0 0 -1
    outer loop
      vertex -5.79768 -1.90244 0
      vertex -4 -0.986923 0
      vertex -5.50302 -2.30801 0
    endloop
  endfacet
  facet normal 0 0 -1
    outer loop
      vertex -4.64507 -3.22165 0
      vertex -3.18712 -1.85255 0
      vertex -4.25877 -3.54121 0
    endloop
  endfacet
  facet normal 0 0 -1
    outer loop
      vertex 6.69442 0 0
      vertex 15 4 0
      vertex 15 0 0
    endloop
  endfacet
  facet normal 0 0 -1
    outer loop
      vertex 6.69442 0 0
      vertex 6.69442 4 0
      vertex 15 4 0
    endloop
  endfacet
  facet normal 0 0 -1
    outer loop
      vertex 1.93716 1.50261 0
      vertex 6.69442 0 0
      vertex 6.24109 -1.145 0
    endloop
  endfacet
  facet normal 0 0 -1
    outer loop
      vertex 6.69442 0 0
      vertex 4.54337 4 0
      vertex 6.69442 4 0
    endloop
  endfacet
  facet normal 0 0 -1
    outer loop
      vertex 1.75261 1.03648 0
      vertex 6.24109 -1.145 0
      vertex 5.99956 -1.58435 0
    endloop
  endfacet
  facet normal 0 0 -1
    outer loop
      vertex 6.69442 4 0
      vertex 4.54337 4 0
      vertex 6.24109 5.145 0
    endloop
  endfacet
  facet normal 0 0 -1
    outer loop
      vertex 1.75261 1.03648 0
      vertex 5.99956 -1.58435 0
      vertex 5.26286 -2.59831 0
    endloop
  endfacet
  facet normal 0 0 -1
    outer loop
      vertex 4.38153 4.40877 0
      vertex 6.24109 5.145 0
      vertex 4.54337 4 0
    endloop
  endfacet
  facet normal 0 0 -1
    outer loop
      vertex 1.45793 0.630905 0
      vertex 5.26286 -2.59831 0
      vertex 4.91968 -2.96376 0
    endloop
  endfacet
  facet normal -0 0 -1
    outer loop
      vertex 6.24109 5.145 0
      vertex 4.38153 4.40877 0
      vertex 5.99956 5.58435 0
    endloop
  endfacet
  facet normal -0 0 -1
    outer loop
      vertex 5.99956 5.58435 0
      vertex 4.38153 4.40877 0
      vertex 5.26286 6.59831 0
    endloop
  endfacet
  facet normal 0 0 -1
    outer loop
      vertex 6.69442 0 0
      vertex 1.93716 1.50261 0
      vertex 4.54337 4 0
    endloop
  endfacet
  facet normal 0 0 -1
    outer loop
      vertex 1.45793 0.630905 0
      vertex 4.91968 -2.96376 0
      vertex 3.95396 -3.76266 0
    endloop
  endfacet
  facet normal -0 0 -1
    outer loop
      vertex 5.26286 6.59831 0
      vertex 4.38153 4.40877 0
      vertex 4.91968 6.96376 0
    endloop
  endfacet
  facet normal 0 0 -1
    outer loop
      vertex 4.38153 4.40877 0
      vertex 3.95396 7.76266 0
      vertex 4.91968 6.96376 0
    endloop
  endfacet
  facet normal 0 -0 -1
    outer loop
      vertex 2 2 0
      vertex 4.54337 4 0
      vertex 1.93716 1.50261 0
    endloop
  endfacet
  facet normal 0 0 -1
    outer loop
      vertex 1.07164 0.31134 0
      vertex 3.95396 -3.76266 0
      vertex 3.53069 -4.03128 0
    endloop
  endfacet
  facet normal 0 0 -1
    outer loop
      vertex 1.75261 2.9635 0
      vertex 4.54337 4 0
      vertex 1.93716 2.49738 0
    endloop
  endfacet
  facet normal 0 0 -1
    outer loop
      vertex 1.07164 0.31134 0
      vertex 3.53069 -4.03128 0
      vertex 2.39664 -4.56493 0
    endloop
  endfacet
  facet normal 0 0 -1
    outer loop
      vertex 4.38153 4.40877 0
      vertex 3.53069 8.03128 0
      vertex 3.95396 7.76266 0
    endloop
  endfacet
  facet normal 0 0 -1
    outer loop
      vertex 4.38153 4.40877 0
      vertex 2.39664 8.56493 0
      vertex 3.53069 8.03128 0
    endloop
  endfacet
  facet normal 0 0 -1
    outer loop
      vertex 1.93716 2.49738 0
      vertex 4.54337 4 0
      vertex 2 2 0
    endloop
  endfacet
  facet normal 0 0 -1
    outer loop
      vertex 0.618027 0.0978851 0
      vertex 2.39664 -4.56493 0
      vertex 1.91983 -4.71985 0
    endloop
  endfacet
  facet normal 0 0 -1
    outer loop
      vertex 6.24109 -1.145 0
      vertex 1.75261 1.03648 0
      vertex 1.93716 1.50261 0
    endloop
  endfacet
  facet normal 0 0 -1
    outer loop
      vertex 5.26286 -2.59831 0
      vertex 1.45793 0.630905 0
      vertex 1.75261 1.03648 0
    endloop
  endfacet
  facet normal 0 0 -1
    outer loop
      vertex 3.95396 -3.76266 0
      vertex 1.07164 0.31134 0
      vertex 1.45793 0.630905 0
    endloop
  endfacet
  facet normal 0 0 -1
    outer loop
      vertex 0.618027 0.0978851 0
      vertex 1.91983 -4.71985 0
      vertex 0.688705 -4.9547 0
    endloop
  endfacet
  facet normal 0 0 -1
    outer loop
      vertex 2.39664 -4.56493 0
      vertex 0.618027 0.0978851 0
      vertex 1.07164 0.31134 0
    endloop
  endfacet
  facet normal 0 0 -1
    outer loop
      vertex 0.12558 0.00393677 0
      vertex 0.688705 -4.9547 0
      vertex 0.188354 -4.98618 0
    endloop
  endfacet
  facet normal 0 0 -1
    outer loop
      vertex 0.688705 -4.9547 0
      vertex 0.12558 0.00393677 0
      vertex 0.618027 0.0978851 0
    endloop
  endfacet
  facet normal 0 0 -1
    outer loop
      vertex 0.188354 -4.98618 0
      vertex -0.374756 0.0354156 0
      vertex 0.12558 0.00393677 0
    endloop
  endfacet
  facet normal 0 0 -1
    outer loop
      vertex -1.0625 -4.90747 0
      vertex -0.374756 0.0354156 0
      vertex 0.188354 -4.98618 0
    endloop
  endfacet
  facet normal 0 0 -1
    outer loop
      vertex -3.18712 -1.85255 0
      vertex -1.0625 -4.90747 0
      vertex -1.55493 -4.81354 0
    endloop
  endfacet
  facet normal 0 0 -1
    outer loop
      vertex -1.0625 -4.90747 0
      vertex -3.18712 -1.85255 0
      vertex -0.374756 0.0354156 0
    endloop
  endfacet
  facet normal 0 0 -1
    outer loop
      vertex -3.18712 -1.85255 0
      vertex -1.55493 -4.81354 0
      vertex -2.74692 -4.42624 0
    endloop
  endfacet
  facet normal -0 0 -1
    outer loop
      vertex -0.374756 0.0354156 0
      vertex -3.18712 -1.85255 0
      vertex -0.851547 0.190338 0
    endloop
  endfacet
  facet normal -0 0 -1
    outer loop
      vertex -0.851547 0.190338 0
      vertex -3.18712 -1.85255 0
      vertex -1.27484 0.458969 0
    endloop
  endfacet
  facet normal 0 0 -1
    outer loop
      vertex -4 -0.986919 0
      vertex -1.27484 0.458969 0
      vertex -3.18712 -1.85255 0
    endloop
  endfacet
  facet normal -0 0 -1
    outer loop
      vertex -1.61803 0.824417 0
      vertex -4 -0.986919 0
      vertex -1.85954 1.26375 0
    endloop
  endfacet
  facet normal -0 0 -1
    outer loop
      vertex -1.27484 0.458969 0
      vertex -4 -0.986919 0
      vertex -1.61803 0.824417 0
    endloop
  endfacet
  facet normal -0 0 1
    outer loop
      vertex 6.98422 2.25067 2
      vertex 15 2 2
      vertex 15 4 2
    endloop
  endfacet
  facet normal 0 0 1
    outer loop
      vertex 6.98422 1.74933 2
      vertex 7 2 2
      vertex 6.98422 2.25067 2
    endloop
  endfacet
  facet normal 0 0 1
    outer loop
      vertex 15 2 2
      vertex 6.98422 2.25067 2
      vertex 7 2 2
    endloop
  endfacet
  facet normal 0 0 1
    outer loop
      vertex 15 4 2
      vertex 6.82713 3.49411 2
      vertex 6.98422 2.25067 2
    endloop
  endfacet
  facet normal 0 0 1
    outer loop
      vertex 15 4 2
      vertex 6.70247 3.97968 2
      vertex 6.82713 3.49411 2
    endloop
  endfacet
  facet normal 0 -0 1
    outer loop
      vertex 6.70247 3.97968 2
      vertex 15 4 2
      vertex 6.69442 4 2
    endloop
  endfacet
  facet normal 0 0 1
    outer loop
      vertex 7 2 2
      vertex 6.98422 1.74933 2
      vertex 7 0 2
    endloop
  endfacet
  facet normal -0 0 1
    outer loop
      vertex 6.82713 0.50589 2
      vertex 7 0 2
      vertex 6.98422 1.74933 2
    endloop
  endfacet
  facet normal -0 0 1
    outer loop
      vertex 6.70247 0.0203247 2
      vertex 7 0 2
      vertex 6.82713 0.50589 2
    endloop
  endfacet
  facet normal 0 0 1
    outer loop
      vertex 7 0 2
      vertex 6.70247 0.0203247 2
      vertex 6.69442 0 2
    endloop
  endfacet
  facet normal -0.425784 0.904825 0
    outer loop
      vertex 2.67912 -2.22163 1
      vertex 1.54507 -2.75528 7
      vertex 2.67912 -2.22163 7
    endloop
  endfacet
  facet normal -0.425784 0.904825 0
    outer loop
      vertex 1.54507 -2.75528 7
      vertex 2.67912 -2.22163 1
      vertex 1.54507 -2.75528 1
    endloop
  endfacet
  facet normal -0.637418 0.770518 0
    outer loop
      vertex 3.64484 -1.42273 1
      vertex 2.67912 -2.22163 7
      vertex 3.64484 -1.42273 7
    endloop
  endfacet
  facet normal -0.637418 0.770518 0
    outer loop
      vertex 2.67912 -2.22163 7
      vertex 3.64484 -1.42273 1
      vertex 2.67912 -2.22163 1
    endloop
  endfacet
  facet normal -0.809016 0.587787 0
    outer loop
      vertex 3.64484 -1.42273 1
      vertex 4.38153 -0.408768 7
      vertex 4.38153 -0.408768 1
    endloop
  endfacet
  facet normal -0.809016 0.587787 0
    outer loop
      vertex 4.38153 -0.408768 7
      vertex 3.64484 -1.42273 1
      vertex 3.64484 -1.42273 7
    endloop
  endfacet
  facet normal 0 -1 0
    outer loop
      vertex 6.69442 0 2
      vertex 6.69442 0 0
      vertex 7 0 2
    endloop
  endfacet
  facet normal 0 -1 0
    outer loop
      vertex 7 0 2
      vertex 7.29486 0 6.62575
      vertex 7 0 7.00591
    endloop
  endfacet
  facet normal 0 -1 0
    outer loop
      vertex 7 0 2
      vertex 7.71031 0 6.15453
      vertex 7.29486 0 6.62575
    endloop
  endfacet
  facet normal 0 -1 0
    outer loop
      vertex 7 0 2
      vertex 8.15453 0 5.71031
      vertex 7.71031 0 6.15453
    endloop
  endfacet
  facet normal 0 -1 0
    outer loop
      vertex 7 0 2
      vertex 8.62575 0 5.29486
      vertex 8.15453 0 5.71031
    endloop
  endfacet
  facet normal 0 -1 0
    outer loop
      vertex 7 0 2
      vertex 9.12215 0 4.90982
      vertex 8.62575 0 5.29486
    endloop
  endfacet
  facet normal 0 -1 0
    outer loop
      vertex 7 0 2
      vertex 9.64172 0 4.55672
      vertex 9.12215 0 4.90982
    endloop
  endfacet
  facet normal 0 -1 0
    outer loop
      vertex 7 0 2
      vertex 10.1824 0 4.23692
      vertex 9.64172 0 4.55672
    endloop
  endfacet
  facet normal 0 -1 0
    outer loop
      vertex 7 0 2
      vertex 10.7422 0 3.95172
      vertex 10.1824 0 4.23692
    endloop
  endfacet
  facet normal 0 -1 0
    outer loop
      vertex 7 0 2
      vertex 11.3187 0 3.70222
      vertex 10.7422 0 3.95172
    endloop
  endfacet
  facet normal 0 -1 0
    outer loop
      vertex 6.69442 0 0
      vertex 11.3187 0 3.70222
      vertex 7 0 2
    endloop
  endfacet
  facet normal 0 -1 -0
    outer loop
      vertex 11.3187 0 3.70222
      vertex 6.69442 0 0
      vertex 11.9098 0 3.48943
    endloop
  endfacet
  facet normal 0 -1 0
    outer loop
      vertex 15 0 0
      vertex 11.9098 0 3.48943
      vertex 6.69442 0 0
    endloop
  endfacet
  facet normal 0 -1 0
    outer loop
      vertex 11.9098 0 3.48943
      vertex 15 0 0
      vertex 12.5131 0 3.31416
    endloop
  endfacet
  facet normal 0 -1 0
    outer loop
      vertex 12.5131 0 3.31416
      vertex 15 0 0
      vertex 13.1262 0 3.17712
    endloop
  endfacet
  facet normal 0 -1 0
    outer loop
      vertex 13.7467 0 3.07884
      vertex 15 0 0
      vertex 14.3721 0 3.01973
    endloop
  endfacet
  facet normal 0 -1 0
    outer loop
      vertex 13.1262 0 3.17712
      vertex 15 0 0
      vertex 13.7467 0 3.07884
    endloop
  endfacet
  facet normal 0 -1 0
    outer loop
      vertex 14.3721 0 3.01973
      vertex 15 0 0
      vertex 15 0 3
    endloop
  endfacet
  facet normal 1 0 0
    outer loop
      vertex 15 2 3
      vertex 15 0 3
      vertex 15 2 2
    endloop
  endfacet
  facet normal 1 -0 0
    outer loop
      vertex 15 2 2
      vertex 15 4 0
      vertex 15 4 2
    endloop
  endfacet
  facet normal 1 0 0
    outer loop
      vertex 15 0 0
      vertex 15 2 2
      vertex 15 0 3
    endloop
  endfacet
  facet normal 1 0 0
    outer loop
      vertex 15 2 2
      vertex 15 0 0
      vertex 15 4 0
    endloop
  endfacet
  facet normal 0 1 -0
    outer loop
      vertex 15 4 0
      vertex 6.69442 4 2
      vertex 15 4 2
    endloop
  endfacet
  facet normal 0 1 0
    outer loop
      vertex 6.69442 4 2
      vertex 15 4 0
      vertex 6.69442 4 0
    endloop
  endfacet
  facet normal 0.929779 0.368118 0
    outer loop
      vertex 4.54337 4 1
      vertex 4.38153 4.40877 0
      vertex 4.38153 4.40877 1
    endloop
  endfacet
  facet normal 0.929779 0.368118 0
    outer loop
      vertex 4.38153 4.40877 0
      vertex 4.54337 4 1
      vertex 4.54337 4 0
    endloop
  endfacet
  facet normal -0.809015 -0.587788 0
    outer loop
      vertex 4.38153 4.40877 1
      vertex 3.64484 5.42273 7
      vertex 3.64484 5.42273 1
    endloop
  endfacet
  facet normal -0.809015 -0.587788 0
    outer loop
      vertex 3.64484 5.42273 7
      vertex 4.38153 4.40877 1
      vertex 4.38153 4.40877 7
    endloop
  endfacet
  facet normal -0.637418 -0.770518 0
    outer loop
      vertex 2.67912 6.22163 1
      vertex 3.64484 5.42273 7
      vertex 2.67912 6.22163 7
    endloop
  endfacet
  facet normal -0.637418 -0.770518 -0
    outer loop
      vertex 3.64484 5.42273 7
      vertex 2.67912 6.22163 1
      vertex 3.64484 5.42273 1
    endloop
  endfacet
  facet normal -0.425784 -0.904825 0
    outer loop
      vertex 1.54507 6.75528 1
      vertex 2.67912 6.22163 7
      vertex 1.54507 6.75528 7
    endloop
  endfacet
  facet normal -0.425784 -0.904825 -0
    outer loop
      vertex 2.67912 6.22163 7
      vertex 1.54507 6.75528 1
      vertex 2.67912 6.22163 1
    endloop
  endfacet
  facet normal -0.187382 -0.982287 0
    outer loop
      vertex 0.31395 6.99013 1
      vertex 1.54507 6.75528 7
      vertex 0.31395 6.99013 7
    endloop
  endfacet
  facet normal -0.187382 -0.982287 -0
    outer loop
      vertex 1.54507 6.75528 7
      vertex 0.31395 6.99013 1
      vertex 1.54507 6.75528 1
    endloop
  endfacet
  facet normal 0.0628008 -0.998026 0
    outer loop
      vertex -0.936905 6.91142 1
      vertex 0.31395 6.99013 7
      vertex -0.936905 6.91142 7
    endloop
  endfacet
  facet normal 0.0628008 -0.998026 0
    outer loop
      vertex 0.31395 6.99013 7
      vertex -0.936905 6.91142 1
      vertex 0.31395 6.99013 1
    endloop
  endfacet
  facet normal 0.309017 -0.951056 0
    outer loop
      vertex -2.12889 6.52412 1
      vertex -0.936905 6.91142 7
      vertex -2.12889 6.52412 7
    endloop
  endfacet
  facet normal 0.309017 -0.951056 0
    outer loop
      vertex -0.936905 6.91142 7
      vertex -2.12889 6.52412 1
      vertex -0.936905 6.91142 1
    endloop
  endfacet
  facet normal 0.535825 -0.844329 0
    outer loop
      vertex -3.18712 5.85255 1
      vertex -2.12889 6.52412 7
      vertex -3.18712 5.85255 7
    endloop
  endfacet
  facet normal 0.535825 -0.844329 0
    outer loop
      vertex -2.12889 6.52412 7
      vertex -3.18712 5.85255 1
      vertex -2.12889 6.52412 1
    endloop
  endfacet
  facet normal -0.728969 0.684547 0
    outer loop
      vertex -4 4.98692 0
      vertex -3.18712 5.85255 1
      vertex -3.18712 5.85255 0
    endloop
  endfacet
  facet normal -0.728969 0.684547 0
    outer loop
      vertex -3.18712 5.85255 1
      vertex -4 4.98692 0
      vertex -4 4.98692 1
    endloop
  endfacet
  facet normal -0.728969 -0.684546 0
    outer loop
      vertex -3.18712 -1.85255 0
      vertex -4 -0.986919 1
      vertex -4 -0.986919 0
    endloop
  endfacet
  facet normal -0.728969 -0.684546 0
    outer loop
      vertex -4 -0.986919 1
      vertex -3.18712 -1.85255 0
      vertex -3.18712 -1.85255 1
    endloop
  endfacet
  facet normal 0.535825 0.844329 -0
    outer loop
      vertex -2.12889 -2.52412 1
      vertex -3.18712 -1.85255 7
      vertex -2.12889 -2.52412 7
    endloop
  endfacet
  facet normal 0.535825 0.844329 0
    outer loop
      vertex -3.18712 -1.85255 7
      vertex -2.12889 -2.52412 1
      vertex -3.18712 -1.85255 1
    endloop
  endfacet
  facet normal 0.309017 0.951056 -0
    outer loop
      vertex -0.936905 -2.91142 1
      vertex -2.12889 -2.52412 7
      vertex -0.936905 -2.91142 7
    endloop
  endfacet
  facet normal 0.309017 0.951056 0
    outer loop
      vertex -2.12889 -2.52412 7
      vertex -0.936905 -2.91142 1
      vertex -2.12889 -2.52412 1
    endloop
  endfacet
  facet normal 0.0628008 0.998026 -0
    outer loop
      vertex 0.31395 -2.99013 1
      vertex -0.936905 -2.91142 7
      vertex 0.31395 -2.99013 7
    endloop
  endfacet
  facet normal 0.0628008 0.998026 0
    outer loop
      vertex -0.936905 -2.91142 7
      vertex 0.31395 -2.99013 1
      vertex -0.936905 -2.91142 1
    endloop
  endfacet
  facet normal -0.187382 0.982287 0
    outer loop
      vertex 1.54507 -2.75528 1
      vertex 0.31395 -2.99013 7
      vertex 1.54507 -2.75528 7
    endloop
  endfacet
  facet normal -0.187382 0.982287 0
    outer loop
      vertex 0.31395 -2.99013 7
      vertex 1.54507 -2.75528 1
      vertex 0.31395 -2.99013 1
    endloop
  endfacet
  facet normal 0.309024 0.951054 -0
    outer loop
      vertex -0.374756 0.0354156 0
      vertex -0.851547 0.190338 1
      vertex -0.374756 0.0354156 1
    endloop
  endfacet
  facet normal 0.309024 0.951054 0
    outer loop
      vertex -0.851547 0.190338 1
      vertex -0.374756 0.0354156 0
      vertex -0.851547 0.190338 0
    endloop
  endfacet
  facet normal 0.535828 0.844327 -0
    outer loop
      vertex -0.851547 0.190338 0
      vertex -1.27484 0.458969 1
      vertex -0.851547 0.190338 1
    endloop
  endfacet
  facet normal 0.535828 0.844327 0
    outer loop
      vertex -1.27484 0.458969 1
      vertex -0.851547 0.190338 0
      vertex -1.27484 0.458969 0
    endloop
  endfacet
  facet normal 0.728957 0.684559 0
    outer loop
      vertex -1.27484 0.458969 1
      vertex -1.61803 0.824417 0
      vertex -1.61803 0.824417 1
    endloop
  endfacet
  facet normal 0.728957 0.684559 0
    outer loop
      vertex -1.61803 0.824417 0
      vertex -1.27484 0.458969 1
      vertex -1.27484 0.458969 0
    endloop
  endfacet
  facet normal 0.87632 0.48173 0
    outer loop
      vertex -1.61803 0.824417 1
      vertex -1.85954 1.26375 0
      vertex -1.85954 1.26375 1
    endloop
  endfacet
  facet normal 0.87632 0.48173 0
    outer loop
      vertex -1.85954 1.26375 0
      vertex -1.61803 0.824417 1
      vertex -1.61803 0.824417 0
    endloop
  endfacet
  facet normal 0.968581 0.248698 0
    outer loop
      vertex -1.85954 1.26375 1
      vertex -1.98422 1.74933 0
      vertex -1.98422 1.74933 1
    endloop
  endfacet
  facet normal 0.968581 0.248698 0
    outer loop
      vertex -1.98422 1.74933 0
      vertex -1.85954 1.26375 1
      vertex -1.85954 1.26375 0
    endloop
  endfacet
  facet normal 1 -0 0
    outer loop
      vertex -1.98422 1.74933 1
      vertex -1.98422 2.25066 0
      vertex -1.98422 2.25066 1
    endloop
  endfacet
  facet normal 1 0 0
    outer loop
      vertex -1.98422 2.25066 0
      vertex -1.98422 1.74933 1
      vertex -1.98422 1.74933 0
    endloop
  endfacet
  facet normal 0.968581 -0.248698 0
    outer loop
      vertex -1.98422 2.25066 1
      vertex -1.85954 2.73624 0
      vertex -1.85954 2.73624 1
    endloop
  endfacet
  facet normal 0.968581 -0.248698 0
    outer loop
      vertex -1.85954 2.73624 0
      vertex -1.98422 2.25066 1
      vertex -1.98422 2.25066 0
    endloop
  endfacet
  facet normal 0.876318 -0.481733 0
    outer loop
      vertex -1.85954 2.73624 1
      vertex -1.61803 3.17557 0
      vertex -1.61803 3.17557 1
    endloop
  endfacet
  facet normal 0.876318 -0.481733 0
    outer loop
      vertex -1.61803 3.17557 0
      vertex -1.85954 2.73624 1
      vertex -1.85954 2.73624 0
    endloop
  endfacet
  facet normal 0.728959 -0.684557 0
    outer loop
      vertex -1.61803 3.17557 1
      vertex -1.27484 3.54102 0
      vertex -1.27484 3.54102 1
    endloop
  endfacet
  facet normal 0.728959 -0.684557 0
    outer loop
      vertex -1.27484 3.54102 0
      vertex -1.61803 3.17557 1
      vertex -1.61803 3.17557 0
    endloop
  endfacet
  facet normal 0.535827 -0.844328 0
    outer loop
      vertex -1.27484 3.54102 0
      vertex -0.851547 3.80965 1
      vertex -1.27484 3.54102 1
    endloop
  endfacet
  facet normal 0.535827 -0.844328 0
    outer loop
      vertex -0.851547 3.80965 1
      vertex -1.27484 3.54102 0
      vertex -0.851547 3.80965 0
    endloop
  endfacet
  facet normal 0.309019 -0.951056 0
    outer loop
      vertex -0.851547 3.80965 0
      vertex -0.374756 3.96457 1
      vertex -0.851547 3.80965 1
    endloop
  endfacet
  facet normal 0.309019 -0.951056 0
    outer loop
      vertex -0.374756 3.96457 1
      vertex -0.851547 3.80965 0
      vertex -0.374756 3.96457 0
    endloop
  endfacet
  facet normal 0.0627936 -0.998027 0
    outer loop
      vertex -0.374756 3.96457 0
      vertex 0.12558 3.99605 1
      vertex -0.374756 3.96457 1
    endloop
  endfacet
  facet normal 0.0627936 -0.998027 0
    outer loop
      vertex 0.12558 3.99605 1
      vertex -0.374756 3.96457 0
      vertex 0.12558 3.99605 0
    endloop
  endfacet
  facet normal -0.187402 -0.982283 0
    outer loop
      vertex 0.12558 3.99605 0
      vertex 0.618027 3.9021 1
      vertex 0.12558 3.99605 1
    endloop
  endfacet
  facet normal -0.187402 -0.982283 -0
    outer loop
      vertex 0.618027 3.9021 1
      vertex 0.12558 3.99605 0
      vertex 0.618027 3.9021 0
    endloop
  endfacet
  facet normal -0.425789 -0.904822 0
    outer loop
      vertex 0.618027 3.9021 0
      vertex 1.07164 3.68864 1
      vertex 0.618027 3.9021 1
    endloop
  endfacet
  facet normal -0.425789 -0.904822 -0
    outer loop
      vertex 1.07164 3.68864 1
      vertex 0.618027 3.9021 0
      vertex 1.07164 3.68864 0
    endloop
  endfacet
  facet normal -0.637416 -0.77052 0
    outer loop
      vertex 1.07164 3.68864 0
      vertex 1.45793 3.36908 1
      vertex 1.07164 3.68864 1
    endloop
  endfacet
  facet normal -0.637416 -0.77052 -0
    outer loop
      vertex 1.45793 3.36908 1
      vertex 1.07164 3.68864 0
      vertex 1.45793 3.36908 0
    endloop
  endfacet
  facet normal -0.809009 -0.587797 0
    outer loop
      vertex 1.75261 2.9635 0
      vertex 1.45793 3.36908 1
      vertex 1.45793 3.36908 0
    endloop
  endfacet
  facet normal -0.809009 -0.587797 0
    outer loop
      vertex 1.45793 3.36908 1
      vertex 1.75261 2.9635 0
      vertex 1.75261 2.9635 1
    endloop
  endfacet
  facet normal -0.929776 -0.368125 0
    outer loop
      vertex 1.93716 2.49738 0
      vertex 1.75261 2.9635 1
      vertex 1.75261 2.9635 0
    endloop
  endfacet
  facet normal -0.929776 -0.368125 0
    outer loop
      vertex 1.75261 2.9635 1
      vertex 1.93716 2.49738 0
      vertex 1.93716 2.49738 1
    endloop
  endfacet
  facet normal -0.992113 -0.125346 0
    outer loop
      vertex 2 2 0
      vertex 1.93716 2.49738 1
      vertex 1.93716 2.49738 0
    endloop
  endfacet
  facet normal -0.992113 -0.125346 0
    outer loop
      vertex 1.93716 2.49738 1
      vertex 2 2 0
      vertex 2 2 1
    endloop
  endfacet
  facet normal -0.992113 0.125343 0
    outer loop
      vertex 1.93716 1.50261 0
      vertex 2 2 1
      vertex 2 2 0
    endloop
  endfacet
  facet normal -0.992113 0.125343 0
    outer loop
      vertex 2 2 1
      vertex 1.93716 1.50261 0
      vertex 1.93716 1.50261 1
    endloop
  endfacet
  facet normal -0.929779 0.368118 0
    outer loop
      vertex 1.75261 1.03648 0
      vertex 1.93716 1.50261 1
      vertex 1.93716 1.50261 0
    endloop
  endfacet
  facet normal -0.929779 0.368118 0
    outer loop
      vertex 1.93716 1.50261 1
      vertex 1.75261 1.03648 0
      vertex 1.75261 1.03648 1
    endloop
  endfacet
  facet normal -0.809005 0.587802 0
    outer loop
      vertex 1.45793 0.630905 0
      vertex 1.75261 1.03648 1
      vertex 1.75261 1.03648 0
    endloop
  endfacet
  facet normal -0.809005 0.587802 0
    outer loop
      vertex 1.75261 1.03648 1
      vertex 1.45793 0.630905 0
      vertex 1.45793 0.630905 1
    endloop
  endfacet
  facet normal -0.637422 0.770515 0
    outer loop
      vertex 1.45793 0.630905 0
      vertex 1.07164 0.31134 1
      vertex 1.45793 0.630905 1
    endloop
  endfacet
  facet normal -0.637422 0.770515 0
    outer loop
      vertex 1.07164 0.31134 1
      vertex 1.45793 0.630905 0
      vertex 1.07164 0.31134 0
    endloop
  endfacet
  facet normal -0.425781 0.904826 0
    outer loop
      vertex 1.07164 0.31134 0
      vertex 0.618027 0.0978851 1
      vertex 1.07164 0.31134 1
    endloop
  endfacet
  facet normal -0.425781 0.904826 0
    outer loop
      vertex 0.618027 0.0978851 1
      vertex 1.07164 0.31134 0
      vertex 0.618027 0.0978851 0
    endloop
  endfacet
  facet normal -0.187399 0.982284 0
    outer loop
      vertex 0.618027 0.0978851 0
      vertex 0.12558 0.00393677 1
      vertex 0.618027 0.0978851 1
    endloop
  endfacet
  facet normal -0.187399 0.982284 0
    outer loop
      vertex 0.12558 0.00393677 1
      vertex 0.618027 0.0978851 0
      vertex 0.12558 0.00393677 0
    endloop
  endfacet
  facet normal 0.0627912 0.998027 -0
    outer loop
      vertex 0.12558 0.00393677 0
      vertex -0.374756 0.0354156 1
      vertex 0.12558 0.00393677 1
    endloop
  endfacet
  facet normal 0.0627912 0.998027 0
    outer loop
      vertex -0.374756 0.0354156 1
      vertex 0.12558 0.00393677 0
      vertex -0.374756 0.0354156 0
    endloop
  endfacet
  facet normal 0 0 1
    outer loop
      vertex 2 2 1
      vertex 5 2 1
      vertex 4.84291 3.24344 1
    endloop
  endfacet
  facet normal 0 0 1
    outer loop
      vertex 1.93716 2.49738 1
      vertex 4.84291 3.24344 1
      vertex 4.54337 4 1
    endloop
  endfacet
  facet normal 0 0 1
    outer loop
      vertex 1.75261 2.9635 1
      vertex 4.54337 4 1
      vertex 4.38153 4.40877 1
    endloop
  endfacet
  facet normal 0 0 1
    outer loop
      vertex 5 2 1
      vertex 2 2 1
      vertex 4.84291 0.756561 1
    endloop
  endfacet
  facet normal 0 0 1
    outer loop
      vertex 1.75261 2.9635 1
      vertex 4.38153 4.40877 1
      vertex 3.64484 5.42273 1
    endloop
  endfacet
  facet normal -0 0 1
    outer loop
      vertex 1.93716 1.50261 1
      vertex 4.84291 0.756561 1
      vertex 2 2 1
    endloop
  endfacet
  facet normal 0 0 1
    outer loop
      vertex 1.45793 3.36908 1
      vertex 3.64484 5.42273 1
      vertex 2.67912 6.22163 1
    endloop
  endfacet
  facet normal 0 0 1
    outer loop
      vertex 4.84291 0.756561 1
      vertex 1.93716 1.50261 1
      vertex 4.38153 -0.408768 1
    endloop
  endfacet
  facet normal -0 0 1
    outer loop
      vertex 1.75261 1.03648 1
      vertex 4.38153 -0.408768 1
      vertex 1.93716 1.50261 1
    endloop
  endfacet
  facet normal 0 0 1
    outer loop
      vertex 4.84291 3.24344 1
      vertex 1.93716 2.49738 1
      vertex 2 2 1
    endloop
  endfacet
  facet normal 0 0 1
    outer loop
      vertex 4.54337 4 1
      vertex 1.75261 2.9635 1
      vertex 1.93716 2.49738 1
    endloop
  endfacet
  facet normal 0 0 1
    outer loop
      vertex 1.07164 3.68864 1
      vertex 2.67912 6.22163 1
      vertex 1.54507 6.75528 1
    endloop
  endfacet
  facet normal 0 0 1
    outer loop
      vertex 3.64484 5.42273 1
      vertex 1.45793 3.36908 1
      vertex 1.75261 2.9635 1
    endloop
  endfacet
  facet normal 0 0 1
    outer loop
      vertex 2.67912 6.22163 1
      vertex 1.07164 3.68864 1
      vertex 1.45793 3.36908 1
    endloop
  endfacet
  facet normal 0 0 1
    outer loop
      vertex 1.54507 6.75528 1
      vertex 0.618027 3.9021 1
      vertex 1.07164 3.68864 1
    endloop
  endfacet
  facet normal 0 0 1
    outer loop
      vertex 0.31395 6.99013 1
      vertex 0.618027 3.9021 1
      vertex 1.54507 6.75528 1
    endloop
  endfacet
  facet normal 0 0 1
    outer loop
      vertex 0.31395 6.99013 1
      vertex 0.12558 3.99605 1
      vertex 0.618027 3.9021 1
    endloop
  endfacet
  facet normal 0 0 1
    outer loop
      vertex 0.31395 6.99013 1
      vertex -0.374756 3.96457 1
      vertex 0.12558 3.99605 1
    endloop
  endfacet
  facet normal -0 0 1
    outer loop
      vertex -0.936905 6.91142 1
      vertex -0.374756 3.96457 1
      vertex 0.31395 6.99013 1
    endloop
  endfacet
  facet normal 0 0 1
    outer loop
      vertex -0.374756 3.96457 1
      vertex -0.936905 6.91142 1
      vertex -0.851547 3.80965 1
    endloop
  endfacet
  facet normal -0 0 1
    outer loop
      vertex -2.12889 6.52412 1
      vertex -0.851547 3.80965 1
      vertex -0.936905 6.91142 1
    endloop
  endfacet
  facet normal 0 0 1
    outer loop
      vertex -0.851547 3.80965 1
      vertex -2.12889 6.52412 1
      vertex -1.27484 3.54102 1
    endloop
  endfacet
  facet normal -0 0 1
    outer loop
      vertex -3.18712 5.85255 1
      vertex -1.27484 3.54102 1
      vertex -2.12889 6.52412 1
    endloop
  endfacet
  facet normal -0 0 1
    outer loop
      vertex -4 4.98692 1
      vertex -1.27484 3.54102 1
      vertex -3.18712 5.85255 1
    endloop
  endfacet
  facet normal 0 0 1
    outer loop
      vertex -1.61803 3.17557 1
      vertex -4 4.98692 1
      vertex -1.85954 2.73624 1
    endloop
  endfacet
  facet normal 0 0 1
    outer loop
      vertex -1.27484 3.54102 1
      vertex -4 4.98692 1
      vertex -1.61803 3.17557 1
    endloop
  endfacet
  facet normal 0 0 1
    outer loop
      vertex 4.38153 -0.408768 1
      vertex 1.75261 1.03648 1
      vertex 3.64484 -1.42273 1
    endloop
  endfacet
  facet normal -0 0 1
    outer loop
      vertex 1.45793 0.630905 1
      vertex 3.64484 -1.42273 1
      vertex 1.75261 1.03648 1
    endloop
  endfacet
  facet normal 0 0 1
    outer loop
      vertex 3.64484 -1.42273 1
      vertex 1.45793 0.630905 1
      vertex 2.67912 -2.22163 1
    endloop
  endfacet
  facet normal -0 0 1
    outer loop
      vertex 1.07164 0.31134 1
      vertex 2.67912 -2.22163 1
      vertex 1.45793 0.630905 1
    endloop
  endfacet
  facet normal 0 0 1
    outer loop
      vertex 2.67912 -2.22163 1
      vertex 1.07164 0.31134 1
      vertex 1.54507 -2.75528 1
    endloop
  endfacet
  facet normal -0 0 1
    outer loop
      vertex 0.618027 0.0978851 1
      vertex 1.54507 -2.75528 1
      vertex 1.07164 0.31134 1
    endloop
  endfacet
  facet normal 0 0 1
    outer loop
      vertex 0.618027 0.0978851 1
      vertex 0.31395 -2.99013 1
      vertex 1.54507 -2.75528 1
    endloop
  endfacet
  facet normal -0 0 1
    outer loop
      vertex 0.12558 0.00393677 1
      vertex 0.31395 -2.99013 1
      vertex 0.618027 0.0978851 1
    endloop
  endfacet
  facet normal 0 0 1
    outer loop
      vertex -0.374756 0.0354156 1
      vertex 0.31395 -2.99013 1
      vertex 0.12558 0.00393677 1
    endloop
  endfacet
  facet normal 0 0 1
    outer loop
      vertex -0.936905 -2.91142 1
      vertex -0.374756 0.0354156 1
      vertex -0.851547 0.190338 1
    endloop
  endfacet
  facet normal 0 0 1
    outer loop
      vertex -0.374756 0.0354156 1
      vertex -0.936905 -2.91142 1
      vertex 0.31395 -2.99013 1
    endloop
  endfacet
  facet normal 0 0 1
    outer loop
      vertex -2.12889 -2.52412 1
      vertex -0.851547 0.190338 1
      vertex -1.27484 0.458969 1
    endloop
  endfacet
  facet normal 0 0 1
    outer loop
      vertex -4 -0.986919 1
      vertex -1.27484 0.458969 1
      vertex -1.61803 0.824417 1
    endloop
  endfacet
  facet normal 0 0 1
    outer loop
      vertex -4 -0.986919 1
      vertex -1.61803 0.824417 1
      vertex -1.85954 1.26375 1
    endloop
  endfacet
  facet normal 0 0 1
    outer loop
      vertex -4 -0.986919 1
      vertex -1.85954 1.26375 1
      vertex -1.98422 1.74933 1
    endloop
  endfacet
  facet normal 0 0 1
    outer loop
      vertex -0.851547 0.190338 1
      vertex -2.12889 -2.52412 1
      vertex -0.936905 -2.91142 1
    endloop
  endfacet
  facet normal 0 0 1
    outer loop
      vertex -1.85954 2.73624 1
      vertex -4 4.98692 1
      vertex -1.98422 2.25066 1
    endloop
  endfacet
  facet normal 0 0 1
    outer loop
      vertex -1.98422 2.25066 1
      vertex -4 4.98692 1
      vertex -1.98422 1.74933 1
    endloop
  endfacet
  facet normal 0 0 1
    outer loop
      vertex -1.27484 0.458969 1
      vertex -3.18712 -1.85255 1
      vertex -2.12889 -2.52412 1
    endloop
  endfacet
  facet normal 0 0 1
    outer loop
      vertex -4 -0.986919 1
      vertex -1.98422 1.74933 1
      vertex -4 4.98692 1
    endloop
  endfacet
  facet normal 0 0 1
    outer loop
      vertex -1.27484 0.458969 1
      vertex -4 -0.986919 1
      vertex -3.18712 -1.85255 1
    endloop
  endfacet
  facet normal 0 1 -0
    outer loop
      vertex 15 2 2
      vertex 14.3721 2 3.01973
      vertex 15 2 3
    endloop
  endfacet
  facet normal 0 1 0
    outer loop
      vertex 15 2 2
      vertex 13.7467 2 3.07884
      vertex 14.3721 2 3.01973
    endloop
  endfacet
  facet normal 0 1 0
    outer loop
      vertex 15 2 2
      vertex 13.1262 2 3.17712
      vertex 13.7467 2 3.07884
    endloop
  endfacet
  facet normal 0 1 0
    outer loop
      vertex 15 2 2
      vertex 12.5131 2 3.31416
      vertex 13.1262 2 3.17712
    endloop
  endfacet
  facet normal 0 1 0
    outer loop
      vertex 7 2 2
      vertex 12.5131 2 3.31416
      vertex 15 2 2
    endloop
  endfacet
  facet normal 0 1 0
    outer loop
      vertex 12.5131 2 3.31416
      vertex 7 2 2
      vertex 11.9098 2 3.48943
    endloop
  endfacet
  facet normal 0 1 0
    outer loop
      vertex 11.9098 2 3.48943
      vertex 7 2 2
      vertex 11.3187 2 3.70222
    endloop
  endfacet
  facet normal 0 1 0
    outer loop
      vertex 7.29486 2 6.62575
      vertex 7 2 2
      vertex 7 2 7.00591
    endloop
  endfacet
  facet normal 0 1 0
    outer loop
      vertex 7.71031 2 6.15453
      vertex 7 2 2
      vertex 7.29486 2 6.62575
    endloop
  endfacet
  facet normal 0 1 0
    outer loop
      vertex 8.15453 2 5.71031
      vertex 7 2 2
      vertex 7.71031 2 6.15453
    endloop
  endfacet
  facet normal 0 1 0
    outer loop
      vertex 8.62575 2 5.29486
      vertex 7 2 2
      vertex 8.15453 2 5.71031
    endloop
  endfacet
  facet normal 0 1 0
    outer loop
      vertex 9.12215 2 4.90982
      vertex 7 2 2
      vertex 8.62575 2 5.29486
    endloop
  endfacet
  facet normal 0 1 0
    outer loop
      vertex 9.64172 2 4.55672
      vertex 7 2 2
      vertex 9.12215 2 4.90982
    endloop
  endfacet
  facet normal 0 1 0
    outer loop
      vertex 10.1824 2 4.23692
      vertex 7 2 2
      vertex 9.64172 2 4.55672
    endloop
  endfacet
  facet normal 0 1 0
    outer loop
      vertex 10.7422 2 3.95172
      vertex 7 2 2
      vertex 10.1824 2 4.23692
    endloop
  endfacet
  facet normal 0 1 0
    outer loop
      vertex 11.3187 2 3.70222
      vertex 7 2 2
      vertex 10.7422 2 3.95172
    endloop
  endfacet
  facet normal 0.0314067 0 0.999507
    outer loop
      vertex 14.3721 2 3.01973
      vertex 15 0 3
      vertex 15 2 3
    endloop
  endfacet
  facet normal 0.0314067 0 0.999507
    outer loop
      vertex 15 0 3
      vertex 14.3721 2 3.01973
      vertex 14.3721 0 3.01973
    endloop
  endfacet
  facet normal 0.0940962 0 0.995563
    outer loop
      vertex 13.7467 2 3.07884
      vertex 14.3721 0 3.01973
      vertex 14.3721 2 3.01973
    endloop
  endfacet
  facet normal 0.0940962 0 0.995563
    outer loop
      vertex 14.3721 0 3.01973
      vertex 13.7467 2 3.07884
      vertex 13.7467 0 3.07884
    endloop
  endfacet
  facet normal 0.156438 0 0.987688
    outer loop
      vertex 13.1262 2 3.17712
      vertex 13.7467 0 3.07884
      vertex 13.7467 2 3.07884
    endloop
  endfacet
  facet normal 0.156438 0 0.987688
    outer loop
      vertex 13.7467 0 3.07884
      vertex 13.1262 2 3.17712
      vertex 13.1262 0 3.17712
    endloop
  endfacet
  facet normal 0.218137 0 0.975918
    outer loop
      vertex 12.5131 2 3.31416
      vertex 13.1262 0 3.17712
      vertex 13.1262 2 3.17712
    endloop
  endfacet
  facet normal 0.218137 0 0.975918
    outer loop
      vertex 13.1262 0 3.17712
      vertex 12.5131 2 3.31416
      vertex 12.5131 0 3.31416
    endloop
  endfacet
  facet normal 0.278984 0 0.960296
    outer loop
      vertex 11.9098 2 3.48943
      vertex 12.5131 0 3.31416
      vertex 12.5131 2 3.31416
    endloop
  endfacet
  facet normal 0.278984 0 0.960296
    outer loop
      vertex 12.5131 0 3.31416
      vertex 11.9098 2 3.48943
      vertex 11.9098 0 3.48943
    endloop
  endfacet
  facet normal 0.338711 0 0.94089
    outer loop
      vertex 11.3187 2 3.70222
      vertex 11.9098 0 3.48943
      vertex 11.9098 2 3.48943
    endloop
  endfacet
  facet normal 0.338711 0 0.94089
    outer loop
      vertex 11.9098 0 3.48943
      vertex 11.3187 2 3.70222
      vertex 11.3187 0 3.70222
    endloop
  endfacet
  facet normal 0.397183 0 0.917739
    outer loop
      vertex 10.7422 2 3.95172
      vertex 11.3187 0 3.70222
      vertex 11.3187 2 3.70222
    endloop
  endfacet
  facet normal 0.397183 0 0.917739
    outer loop
      vertex 11.3187 0 3.70222
      vertex 10.7422 2 3.95172
      vertex 10.7422 0 3.95172
    endloop
  endfacet
  facet normal 0.45395 0 0.891027
    outer loop
      vertex 10.1824 2 4.23692
      vertex 10.7422 0 3.95172
      vertex 10.7422 2 3.95172
    endloop
  endfacet
  facet normal 0.45395 0 0.891027
    outer loop
      vertex 10.7422 0 3.95172
      vertex 10.1824 2 4.23692
      vertex 10.1824 0 4.23692
    endloop
  endfacet
  facet normal 0.509092 0 0.860712
    outer loop
      vertex 9.64172 2 4.55672
      vertex 10.1824 0 4.23692
      vertex 10.1824 2 4.23692
    endloop
  endfacet
  facet normal 0.509092 0 0.860712
    outer loop
      vertex 10.1824 0 4.23692
      vertex 9.64172 2 4.55672
      vertex 9.64172 0 4.55672
    endloop
  endfacet
  facet normal 0.562084 0 0.82708
    outer loop
      vertex 9.12215 2 4.90982
      vertex 9.64172 0 4.55672
      vertex 9.64172 2 4.55672
    endloop
  endfacet
  facet normal 0.562084 0 0.82708
    outer loop
      vertex 9.64172 0 4.55672
      vertex 9.12215 2 4.90982
      vertex 9.12215 0 4.90982
    endloop
  endfacet
  facet normal 0.6129 0 0.790161
    outer loop
      vertex 8.62575 2 5.29486
      vertex 9.12215 0 4.90982
      vertex 9.12215 2 4.90982
    endloop
  endfacet
  facet normal 0.6129 0 0.790161
    outer loop
      vertex 9.12215 0 4.90982
      vertex 8.62575 2 5.29486
      vertex 8.62575 0 5.29486
    endloop
  endfacet
  facet normal 0.661324 0 0.7501
    outer loop
      vertex 8.15453 2 5.71031
      vertex 8.62575 0 5.29486
      vertex 8.62575 2 5.29486
    endloop
  endfacet
  facet normal 0.661324 0 0.7501
    outer loop
      vertex 8.62575 0 5.29486
      vertex 8.15453 2 5.71031
      vertex 8.15453 0 5.71031
    endloop
  endfacet
  facet normal 0.707107 -0 0.707107
    outer loop
      vertex 7.71031 0 6.15453
      vertex 8.15453 2 5.71031
      vertex 7.71031 2 6.15453
    endloop
  endfacet
  facet normal 0.707107 0 0.707107
    outer loop
      vertex 8.15453 2 5.71031
      vertex 7.71031 0 6.15453
      vertex 8.15453 0 5.71031
    endloop
  endfacet
  facet normal 0.7501 -0 0.661324
    outer loop
      vertex 7.29486 0 6.62575
      vertex 7.71031 2 6.15453
      vertex 7.29486 2 6.62575
    endloop
  endfacet
  facet normal 0.7501 0 0.661324
    outer loop
      vertex 7.71031 2 6.15453
      vertex 7.29486 0 6.62575
      vertex 7.71031 0 6.15453
    endloop
  endfacet
  facet normal 0.790177 -0 0.612878
    outer loop
      vertex 7 0 7.00591
      vertex 7.29486 2 6.62575
      vertex 7 2 7.00591
    endloop
  endfacet
  facet normal 0.790177 0 0.612878
    outer loop
      vertex 7.29486 2 6.62575
      vertex 7 0 7.00591
      vertex 7.29486 0 6.62575
    endloop
  endfacet
  facet normal -1 0 0
    outer loop
      vertex 7 0 2
      vertex 7 2 7.00591
      vertex 7 2 2
    endloop
  endfacet
  facet normal -1 -0 0
    outer loop
      vertex 7 2 7.00591
      vertex 7 0 2
      vertex 7 0 7.00591
    endloop
  endfacet
  facet normal 0 0 1
    outer loop
      vertex 5 2 7
      vertex 6.98422 2.25067 7
      vertex 6.82713 3.49411 7
    endloop
  endfacet
  facet normal 0 0 1
    outer loop
      vertex 6.98422 2.25067 7
      vertex 5 2 7
      vertex 6.98422 1.74933 7
    endloop
  endfacet
  facet normal 0 0 1
    outer loop
      vertex 4.84291 3.24344 7
      vertex 6.82713 3.49411 7
      vertex 6.70247 3.97968 7
    endloop
  endfacet
  facet normal 0 0 1
    outer loop
      vertex 6.98422 1.74933 7
      vertex 5 2 7
      vertex 6.82713 0.50589 7
    endloop
  endfacet
  facet normal 0 0 1
    outer loop
      vertex 4.84291 3.24344 7
      vertex 6.70247 3.97968 7
      vertex 6.24109 5.145 7
    endloop
  endfacet
  facet normal -0 0 1
    outer loop
      vertex 4.84291 0.756561 7
      vertex 6.82713 0.50589 7
      vertex 5 2 7
    endloop
  endfacet
  facet normal 0 0 1
    outer loop
      vertex 4.38153 4.40877 7
      vertex 6.24109 5.145 7
      vertex 5.99956 5.58435 7
    endloop
  endfacet
  facet normal 0 0 1
    outer loop
      vertex 6.82713 0.50589 7
      vertex 4.84291 0.756561 7
      vertex 6.70247 0.0203247 7
    endloop
  endfacet
  facet normal 0 0 1
    outer loop
      vertex 4.38153 4.40877 7
      vertex 5.99956 5.58435 7
      vertex 5.26286 6.59831 7
    endloop
  endfacet
  facet normal 0 0 1
    outer loop
      vertex 6.70247 0.0203247 7
      vertex 4.84291 0.756561 7
      vertex 6.24109 -1.145 7
    endloop
  endfacet
  facet normal -0 0 1
    outer loop
      vertex 4.38153 -0.408768 7
      vertex 6.24109 -1.145 7
      vertex 4.84291 0.756561 7
    endloop
  endfacet
  facet normal 0 0 1
    outer loop
      vertex 3.64484 5.42273 7
      vertex 5.26286 6.59831 7
      vertex 4.91968 6.96376 7
    endloop
  endfacet
  facet normal 0 0 1
    outer loop
      vertex 6.82713 3.49411 7
      vertex 4.84291 3.24344 7
      vertex 5 2 7
    endloop
  endfacet
  facet normal 0 0 1
    outer loop
      vertex 6.24109 5.145 7
      vertex 4.38153 4.40877 7
      vertex 4.84291 3.24344 7
    endloop
  endfacet
  facet normal 0 0 1
    outer loop
      vertex 3.64484 5.42273 7
      vertex 4.91968 6.96376 7
      vertex 3.95396 7.76266 7
    endloop
  endfacet
  facet normal 0 0 1
    outer loop
      vertex 5.26286 6.59831 7
      vertex 3.64484 5.42273 7
      vertex 4.38153 4.40877 7
    endloop
  endfacet
  facet normal 0 0 1
    outer loop
      vertex 2.67912 6.22163 7
      vertex 3.95396 7.76266 7
      vertex 3.53069 8.03128 7
    endloop
  endfacet
  facet normal 0 0 1
    outer loop
      vertex 3.95396 7.76266 7
      vertex 2.67912 6.22163 7
      vertex 3.64484 5.42273 7
    endloop
  endfacet
  facet normal 0 0 1
    outer loop
      vertex 2.39664 8.56493 7
      vertex 2.67912 6.22163 7
      vertex 3.53069 8.03128 7
    endloop
  endfacet
  facet normal 0 0 1
    outer loop
      vertex 1.54507 6.75528 7
      vertex 2.39664 8.56493 7
      vertex 1.91983 8.71985 7
    endloop
  endfacet
  facet normal 0 0 1
    outer loop
      vertex 2.39664 8.56493 7
      vertex 1.54507 6.75528 7
      vertex 2.67912 6.22163 7
    endloop
  endfacet
  facet normal 0 0 1
    outer loop
      vertex 0.688705 8.9547 7
      vertex 1.54507 6.75528 7
      vertex 1.91983 8.71985 7
    endloop
  endfacet
  facet normal 0 0 1
    outer loop
      vertex 0.688705 8.9547 7
      vertex 0.31395 6.99013 7
      vertex 1.54507 6.75528 7
    endloop
  endfacet
  facet normal 0 0 1
    outer loop
      vertex 0.188354 8.98618 7
      vertex 0.31395 6.99013 7
      vertex 0.688705 8.9547 7
    endloop
  endfacet
  facet normal 0 0 1
    outer loop
      vertex 0.188354 8.98618 7
      vertex -0.936905 6.91142 7
      vertex 0.31395 6.99013 7
    endloop
  endfacet
  facet normal -0 0 1
    outer loop
      vertex -1.0625 8.90747 7
      vertex -0.936905 6.91142 7
      vertex 0.188354 8.98618 7
    endloop
  endfacet
  facet normal -0 0 1
    outer loop
      vertex -1.55493 8.81354 7
      vertex -0.936905 6.91142 7
      vertex -1.0625 8.90747 7
    endloop
  endfacet
  facet normal 0 0 1
    outer loop
      vertex -1.55493 8.81354 7
      vertex -2.12889 6.52412 7
      vertex -0.936905 6.91142 7
    endloop
  endfacet
  facet normal -0 0 1
    outer loop
      vertex -2.74692 8.42624 7
      vertex -2.12889 6.52412 7
      vertex -1.55493 8.81354 7
    endloop
  endfacet
  facet normal -0 0 1
    outer loop
      vertex -3.20055 8.21278 7
      vertex -2.12889 6.52412 7
      vertex -2.74692 8.42624 7
    endloop
  endfacet
  facet normal 0 0 1
    outer loop
      vertex -2.12889 6.52412 7
      vertex -3.20055 8.21278 7
      vertex -3.18712 5.85255 7
    endloop
  endfacet
  facet normal -0 0 1
    outer loop
      vertex -4.25877 7.54121 7
      vertex -3.18712 5.85255 7
      vertex -3.20055 8.21278 7
    endloop
  endfacet
  facet normal -0 0 1
    outer loop
      vertex -4.85321 7 7
      vertex -3.18712 5.85255 7
      vertex -4.64507 7.22165 7
    endloop
  endfacet
  facet normal -0 0 1
    outer loop
      vertex -4.64507 7.22165 7
      vertex -3.18712 5.85255 7
      vertex -4.25877 7.54121 7
    endloop
  endfacet
  facet normal 0 0 1
    outer loop
      vertex 6.24109 -1.145 7
      vertex 4.38153 -0.408768 7
      vertex 5.99956 -1.58435 7
    endloop
  endfacet
  facet normal 0 0 1
    outer loop
      vertex 5.99956 -1.58435 7
      vertex 4.38153 -0.408768 7
      vertex 5.26286 -2.59831 7
    endloop
  endfacet
  facet normal -0 0 1
    outer loop
      vertex 3.64484 -1.42273 7
      vertex 5.26286 -2.59831 7
      vertex 4.38153 -0.408768 7
    endloop
  endfacet
  facet normal 0 0 1
    outer loop
      vertex 5.26286 -2.59831 7
      vertex 3.64484 -1.42273 7
      vertex 4.91968 -2.96376 7
    endloop
  endfacet
  facet normal 0 0 1
    outer loop
      vertex 4.91968 -2.96376 7
      vertex 3.64484 -1.42273 7
      vertex 3.95396 -3.76266 7
    endloop
  endfacet
  facet normal -0 0 1
    outer loop
      vertex 2.67912 -2.22163 7
      vertex 3.95396 -3.76266 7
      vertex 3.64484 -1.42273 7
    endloop
  endfacet
  facet normal 0 0 1
    outer loop
      vertex 3.95396 -3.76266 7
      vertex 2.67912 -2.22163 7
      vertex 3.53069 -4.03128 7
    endloop
  endfacet
  facet normal 0 0 1
    outer loop
      vertex 2.67912 -2.22163 7
      vertex 2.39664 -4.56493 7
      vertex 3.53069 -4.03128 7
    endloop
  endfacet
  facet normal -0 0 1
    outer loop
      vertex 1.54507 -2.75528 7
      vertex 2.39664 -4.56493 7
      vertex 2.67912 -2.22163 7
    endloop
  endfacet
  facet normal 0 0 1
    outer loop
      vertex 2.39664 -4.56493 7
      vertex 1.54507 -2.75528 7
      vertex 1.91983 -4.71985 7
    endloop
  endfacet
  facet normal 0 0 1
    outer loop
      vertex 1.54507 -2.75528 7
      vertex 0.688705 -4.9547 7
      vertex 1.91983 -4.71985 7
    endloop
  endfacet
  facet normal -0 0 1
    outer loop
      vertex 0.31395 -2.99013 7
      vertex 0.688705 -4.9547 7
      vertex 1.54507 -2.75528 7
    endloop
  endfacet
  facet normal 0 0 1
    outer loop
      vertex 0.31395 -2.99013 7
      vertex 0.188354 -4.98618 7
      vertex 0.688705 -4.9547 7
    endloop
  endfacet
  facet normal 0 0 1
    outer loop
      vertex -0.936905 -2.91142 7
      vertex 0.188354 -4.98618 7
      vertex 0.31395 -2.99013 7
    endloop
  endfacet
  facet normal 0 0 1
    outer loop
      vertex -0.936905 -2.91142 7
      vertex -1.0625 -4.90747 7
      vertex 0.188354 -4.98618 7
    endloop
  endfacet
  facet normal 0 0 1
    outer loop
      vertex -0.936905 -2.91142 7
      vertex -1.55493 -4.81354 7
      vertex -1.0625 -4.90747 7
    endloop
  endfacet
  facet normal 0 0 1
    outer loop
      vertex -2.12889 -2.52412 7
      vertex -1.55493 -4.81354 7
      vertex -0.936905 -2.91142 7
    endloop
  endfacet
  facet normal 0 0 1
    outer loop
      vertex -2.12889 -2.52412 7
      vertex -2.74692 -4.42624 7
      vertex -1.55493 -4.81354 7
    endloop
  endfacet
  facet normal 0 0 1
    outer loop
      vertex -3.20055 -4.21278 7
      vertex -2.12889 -2.52412 7
      vertex -3.18712 -1.85255 7
    endloop
  endfacet
  facet normal 0 0 1
    outer loop
      vertex -2.12889 -2.52412 7
      vertex -3.20055 -4.21278 7
      vertex -2.74692 -4.42624 7
    endloop
  endfacet
  facet normal 0 0 1
    outer loop
      vertex -4.64507 -3.22165 7
      vertex -3.18712 -1.85255 7
      vertex -4 -0.986923 7
    endloop
  endfacet
  facet normal 0 0 1
    outer loop
      vertex -3.18712 -1.85255 7
      vertex -4.25877 -3.54121 7
      vertex -3.20055 -4.21278 7
    endloop
  endfacet
  facet normal 0 0 1
    outer loop
      vertex -3.18712 5.85255 7
      vertex -5 6.84367 7
      vertex -4 4.98692 7
    endloop
  endfacet
  facet normal -0 0 1
    outer loop
      vertex -5 6.84367 7
      vertex -3.18712 5.85255 7
      vertex -4.85321 7 7
    endloop
  endfacet
  facet normal -0 0 1
    outer loop
      vertex -5.50302 6.30801 7
      vertex -4 4.98692 7
      vertex -5 6.84367 7
    endloop
  endfacet
  facet normal 0 0 1
    outer loop
      vertex -6.40149 4.80414 7
      vertex -4 4.98692 7
      vertex -5.79768 5.90244 7
    endloop
  endfacet
  facet normal 0 0 1
    outer loop
      vertex -5 6.84367 7
      vertex -4.85321 7 7
      vertex -5 7 7
    endloop
  endfacet
  facet normal 0 0 1
    outer loop
      vertex -3.18712 -1.85255 7
      vertex -4.64507 -3.22165 7
      vertex -4.25877 -3.54121 7
    endloop
  endfacet
  facet normal 0 0 1
    outer loop
      vertex -4 4.98692 7
      vertex -5.50302 6.30801 7
      vertex -5.79768 5.90244 7
    endloop
  endfacet
  facet normal 0 0 1
    outer loop
      vertex -4 -0.986923 7
      vertex -5.50302 -2.30801 7
      vertex -4.64507 -3.22165 7
    endloop
  endfacet
  facet normal 0 0 1
    outer loop
      vertex -6.58604 4.338 7
      vertex -4 4.98692 7
      vertex -6.40149 4.80414 7
    endloop
  endfacet
  facet normal 0 0 1
    outer loop
      vertex -4 -0.986923 7
      vertex -5.79768 -1.90244 7
      vertex -5.50302 -2.30801 7
    endloop
  endfacet
  facet normal 0 0 1
    outer loop
      vertex -6.89774 3.12404 7
      vertex -4 4.98692 7
      vertex -6.58604 4.338 7
    endloop
  endfacet
  facet normal 0 0 1
    outer loop
      vertex -4 -0.986923 7
      vertex -6.40149 -0.804138 7
      vertex -5.79768 -1.90244 7
    endloop
  endfacet
  facet normal 0 0 1
    outer loop
      vertex -6.96057 2.62666 7
      vertex -4 4.98692 7
      vertex -6.89774 3.12404 7
    endloop
  endfacet
  facet normal 0 0 1
    outer loop
      vertex -4 -0.986923 7
      vertex -6.58604 -0.337997 7
      vertex -6.40149 -0.804138 7
    endloop
  endfacet
  facet normal 0 0 1
    outer loop
      vertex -4 4.98692 7
      vertex -6.96057 2.62666 7
      vertex -4 -0.986923 7
    endloop
  endfacet
  facet normal 0 0 1
    outer loop
      vertex -4 -0.986923 7
      vertex -6.89774 0.875961 7
      vertex -6.58604 -0.337997 7
    endloop
  endfacet
  facet normal -0 0 1
    outer loop
      vertex -6.96057 1.37334 7
      vertex -4 -0.986923 7
      vertex -6.96057 2.62666 7
    endloop
  endfacet
  facet normal 0 0 1
    outer loop
      vertex -4 -0.986923 7
      vertex -6.96057 1.37334 7
      vertex -6.89774 0.875961 7
    endloop
  endfacet
  facet normal 0.187382 -0.982287 0
    outer loop
      vertex 0.688705 -4.9547 0
      vertex 1.91983 -4.71985 7
      vertex 0.688705 -4.9547 7
    endloop
  endfacet
  facet normal 0.187382 -0.982287 0
    outer loop
      vertex 1.91983 -4.71985 7
      vertex 0.688705 -4.9547 0
      vertex 1.91983 -4.71985 0
    endloop
  endfacet
  facet normal 0.309008 -0.951059 0
    outer loop
      vertex 1.91983 -4.71985 0
      vertex 2.39664 -4.56493 7
      vertex 1.91983 -4.71985 7
    endloop
  endfacet
  facet normal 0.309008 -0.951059 0
    outer loop
      vertex 2.39664 -4.56493 7
      vertex 1.91983 -4.71985 0
      vertex 2.39664 -4.56493 0
    endloop
  endfacet
  facet normal 0.425784 -0.904825 0
    outer loop
      vertex 2.39664 -4.56493 0
      vertex 3.53069 -4.03128 7
      vertex 2.39664 -4.56493 7
    endloop
  endfacet
  facet normal 0.425784 -0.904825 0
    outer loop
      vertex 3.53069 -4.03128 7
      vertex 2.39664 -4.56493 0
      vertex 3.53069 -4.03128 0
    endloop
  endfacet
  facet normal 0.535833 -0.844324 0
    outer loop
      vertex 3.53069 -4.03128 0
      vertex 3.95396 -3.76266 7
      vertex 3.53069 -4.03128 7
    endloop
  endfacet
  facet normal 0.535833 -0.844324 0
    outer loop
      vertex 3.95396 -3.76266 7
      vertex 3.53069 -4.03128 0
      vertex 3.95396 -3.76266 0
    endloop
  endfacet
  facet normal 0.637418 -0.770518 0
    outer loop
      vertex 3.95396 -3.76266 0
      vertex 4.91968 -2.96376 7
      vertex 3.95396 -3.76266 7
    endloop
  endfacet
  facet normal 0.637418 -0.770518 0
    outer loop
      vertex 4.91968 -2.96376 7
      vertex 3.95396 -3.76266 0
      vertex 4.91968 -2.96376 0
    endloop
  endfacet
  facet normal 0.728969 -0.684547 0
    outer loop
      vertex 4.91968 -2.96376 7
      vertex 5.26286 -2.59831 0
      vertex 5.26286 -2.59831 7
    endloop
  endfacet
  facet normal 0.728969 -0.684547 0
    outer loop
      vertex 5.26286 -2.59831 0
      vertex 4.91968 -2.96376 7
      vertex 4.91968 -2.96376 0
    endloop
  endfacet
  facet normal 0.809011 -0.587793 0
    outer loop
      vertex 5.26286 -2.59831 7
      vertex 5.99956 -1.58435 0
      vertex 5.99956 -1.58435 7
    endloop
  endfacet
  facet normal 0.809011 -0.587793 0
    outer loop
      vertex 5.99956 -1.58435 0
      vertex 5.26286 -2.59831 7
      vertex 5.26286 -2.59831 0
    endloop
  endfacet
  facet normal 0.876311 -0.481746 0
    outer loop
      vertex 5.99956 -1.58435 7
      vertex 6.24109 -1.145 0
      vertex 6.24109 -1.145 7
    endloop
  endfacet
  facet normal 0.876311 -0.481746 0
    outer loop
      vertex 6.24109 -1.145 0
      vertex 5.99956 -1.58435 7
      vertex 5.99956 -1.58435 0
    endloop
  endfacet
  facet normal 0.929731 -0.368239 0
    outer loop
      vertex 6.70247 0.0203247 7
      vertex 6.69442 0 2
      vertex 6.70247 0.0203247 2
    endloop
  endfacet
  facet normal 0.929778 -0.368121 -5.51129e-07
    outer loop
      vertex 6.24109 -1.145 7
      vertex 6.69442 0 2
      vertex 6.70247 0.0203247 7
    endloop
  endfacet
  facet normal 0.929779 -0.368119 0
    outer loop
      vertex 6.24109 -1.145 0
      vertex 6.69442 0 2
      vertex 6.24109 -1.145 7
    endloop
  endfacet
  facet normal 0.929779 -0.368119 0
    outer loop
      vertex 6.69442 0 2
      vertex 6.24109 -1.145 0
      vertex 6.69442 0 0
    endloop
  endfacet
  facet normal 0.968589 -0.248667 0
    outer loop
      vertex 6.70247 0.0203247 7
      vertex 6.82713 0.50589 2
      vertex 6.82713 0.50589 7
    endloop
  endfacet
  facet normal 0.968589 -0.248667 0
    outer loop
      vertex 6.82713 0.50589 2
      vertex 6.70247 0.0203247 7
      vertex 6.70247 0.0203247 2
    endloop
  endfacet
  facet normal 0.992114 -0.125339 0
    outer loop
      vertex 6.82713 0.50589 7
      vertex 6.98422 1.74933 2
      vertex 6.98422 1.74933 7
    endloop
  endfacet
  facet normal 0.992114 -0.125339 0
    outer loop
      vertex 6.98422 1.74933 2
      vertex 6.82713 0.50589 7
      vertex 6.82713 0.50589 2
    endloop
  endfacet
  facet normal 1 -0 0
    outer loop
      vertex 6.98422 1.74933 7
      vertex 6.98422 2.25067 2
      vertex 6.98422 2.25067 7
    endloop
  endfacet
  facet normal 1 0 0
    outer loop
      vertex 6.98422 2.25067 2
      vertex 6.98422 1.74933 7
      vertex 6.98422 1.74933 2
    endloop
  endfacet
  facet normal 0.992114 0.125339 0
    outer loop
      vertex 6.98422 2.25067 7
      vertex 6.82713 3.49411 2
      vertex 6.82713 3.49411 7
    endloop
  endfacet
  facet normal 0.992114 0.125339 0
    outer loop
      vertex 6.82713 3.49411 2
      vertex 6.98422 2.25067 7
      vertex 6.98422 2.25067 2
    endloop
  endfacet
  facet normal 0.968589 0.248665 0
    outer loop
      vertex 6.82713 3.49411 7
      vertex 6.70247 3.97968 2
      vertex 6.70247 3.97968 7
    endloop
  endfacet
  facet normal 0.968589 0.248665 0
    outer loop
      vertex 6.70247 3.97968 2
      vertex 6.82713 3.49411 7
      vertex 6.82713 3.49411 2
    endloop
  endfacet
  facet normal 0.929779 0.368119 0
    outer loop
      vertex 6.24109 5.145 7
      vertex 6.69442 4 2
      vertex 6.24109 5.145 0
    endloop
  endfacet
  facet normal 0.929777 0.368123 -8.91128e-07
    outer loop
      vertex 6.70247 3.97968 7
      vertex 6.69442 4 2
      vertex 6.24109 5.145 7
    endloop
  endfacet
  facet normal 0.929702 0.368312 0
    outer loop
      vertex 6.69442 4 2
      vertex 6.70247 3.97968 7
      vertex 6.70247 3.97968 2
    endloop
  endfacet
  facet normal 0.929779 0.368119 0
    outer loop
      vertex 6.24109 5.145 0
      vertex 6.69442 4 2
      vertex 6.69442 4 0
    endloop
  endfacet
  facet normal 0.876311 0.481746 0
    outer loop
      vertex 6.24109 5.145 7
      vertex 5.99956 5.58435 0
      vertex 5.99956 5.58435 7
    endloop
  endfacet
  facet normal 0.876311 0.481746 0
    outer loop
      vertex 5.99956 5.58435 0
      vertex 6.24109 5.145 7
      vertex 6.24109 5.145 0
    endloop
  endfacet
  facet normal 0.809011 0.587793 0
    outer loop
      vertex 5.99956 5.58435 7
      vertex 5.26286 6.59831 0
      vertex 5.26286 6.59831 7
    endloop
  endfacet
  facet normal 0.809011 0.587793 0
    outer loop
      vertex 5.26286 6.59831 0
      vertex 5.99956 5.58435 7
      vertex 5.99956 5.58435 0
    endloop
  endfacet
  facet normal 0.728969 0.684547 0
    outer loop
      vertex 5.26286 6.59831 7
      vertex 4.91968 6.96376 0
      vertex 4.91968 6.96376 7
    endloop
  endfacet
  facet normal 0.728969 0.684547 0
    outer loop
      vertex 4.91968 6.96376 0
      vertex 5.26286 6.59831 7
      vertex 5.26286 6.59831 0
    endloop
  endfacet
  facet normal 0.637418 0.770518 -0
    outer loop
      vertex 4.91968 6.96376 0
      vertex 3.95396 7.76266 7
      vertex 4.91968 6.96376 7
    endloop
  endfacet
  facet normal 0.637418 0.770518 0
    outer loop
      vertex 3.95396 7.76266 7
      vertex 4.91968 6.96376 0
      vertex 3.95396 7.76266 0
    endloop
  endfacet
  facet normal 0.535833 0.844324 -0
    outer loop
      vertex 3.95396 7.76266 0
      vertex 3.53069 8.03128 7
      vertex 3.95396 7.76266 7
    endloop
  endfacet
  facet normal 0.535833 0.844324 0
    outer loop
      vertex 3.53069 8.03128 7
      vertex 3.95396 7.76266 0
      vertex 3.53069 8.03128 0
    endloop
  endfacet
  facet normal 0.425784 0.904825 -0
    outer loop
      vertex 3.53069 8.03128 0
      vertex 2.39664 8.56493 7
      vertex 3.53069 8.03128 7
    endloop
  endfacet
  facet normal 0.425784 0.904825 0
    outer loop
      vertex 2.39664 8.56493 7
      vertex 3.53069 8.03128 0
      vertex 2.39664 8.56493 0
    endloop
  endfacet
  facet normal 0.309008 0.951059 -0
    outer loop
      vertex 2.39664 8.56493 0
      vertex 1.91983 8.71985 7
      vertex 2.39664 8.56493 7
    endloop
  endfacet
  facet normal 0.309008 0.951059 0
    outer loop
      vertex 1.91983 8.71985 7
      vertex 2.39664 8.56493 0
      vertex 1.91983 8.71985 0
    endloop
  endfacet
  facet normal 0.187382 0.982287 -0
    outer loop
      vertex 1.91983 8.71985 0
      vertex 0.688705 8.9547 7
      vertex 1.91983 8.71985 7
    endloop
  endfacet
  facet normal 0.187382 0.982287 0
    outer loop
      vertex 0.688705 8.9547 7
      vertex 1.91983 8.71985 0
      vertex 0.688705 8.9547 0
    endloop
  endfacet
  facet normal 0.0627917 0.998027 -0
    outer loop
      vertex 0.688705 8.9547 0
      vertex 0.188354 8.98618 7
      vertex 0.688705 8.9547 7
    endloop
  endfacet
  facet normal 0.0627917 0.998027 0
    outer loop
      vertex 0.188354 8.98618 7
      vertex 0.688705 8.9547 0
      vertex 0.188354 8.98618 0
    endloop
  endfacet
  facet normal -0.0628008 0.998026 0
    outer loop
      vertex 0.188354 8.98618 0
      vertex -1.0625 8.90747 7
      vertex 0.188354 8.98618 7
    endloop
  endfacet
  facet normal -0.0628008 0.998026 0
    outer loop
      vertex -1.0625 8.90747 7
      vertex 0.188354 8.98618 0
      vertex -1.0625 8.90747 0
    endloop
  endfacet
  facet normal -0.18737 0.982289 0
    outer loop
      vertex -1.0625 8.90747 0
      vertex -1.55493 8.81354 7
      vertex -1.0625 8.90747 7
    endloop
  endfacet
  facet normal -0.18737 0.982289 0
    outer loop
      vertex -1.55493 8.81354 7
      vertex -1.0625 8.90747 0
      vertex -1.55493 8.81354 0
    endloop
  endfacet
  facet normal -0.309016 0.951057 0
    outer loop
      vertex -1.55493 8.81354 0
      vertex -2.74692 8.42624 7
      vertex -1.55493 8.81354 7
    endloop
  endfacet
  facet normal -0.309016 0.951057 0
    outer loop
      vertex -2.74692 8.42624 7
      vertex -1.55493 8.81354 0
      vertex -2.74692 8.42624 0
    endloop
  endfacet
  facet normal -0.425776 0.904829 0
    outer loop
      vertex -2.74692 8.42624 0
      vertex -3.20055 8.21278 7
      vertex -2.74692 8.42624 7
    endloop
  endfacet
  facet normal -0.425776 0.904829 0
    outer loop
      vertex -3.20055 8.21278 7
      vertex -2.74692 8.42624 0
      vertex -3.20055 8.21278 0
    endloop
  endfacet
  facet normal -0.535829 0.844327 0
    outer loop
      vertex -3.20055 8.21278 0
      vertex -4.25877 7.54121 7
      vertex -3.20055 8.21278 7
    endloop
  endfacet
  facet normal -0.535829 0.844327 0
    outer loop
      vertex -4.25877 7.54121 7
      vertex -3.20055 8.21278 0
      vertex -4.25877 7.54121 0
    endloop
  endfacet
  facet normal -0.637406 0.770528 0
    outer loop
      vertex -4.25877 7.54121 0
      vertex -4.64507 7.22165 7
      vertex -4.25877 7.54121 7
    endloop
  endfacet
  facet normal -0.637406 0.770528 0
    outer loop
      vertex -4.64507 7.22165 7
      vertex -4.25877 7.54121 0
      vertex -4.64507 7.22165 0
    endloop
  endfacet
  facet normal -0.728974 0.684542 0
    outer loop
      vertex -4.85321 7 0
      vertex -4.64507 7.22165 7
      vertex -4.64507 7.22165 0
    endloop
  endfacet
  facet normal -0.728974 0.684542 0
    outer loop
      vertex -4.64507 7.22165 7
      vertex -4.85321 7 0
      vertex -4.85321 7 7
    endloop
  endfacet
  facet normal 0 1 -0
    outer loop
      vertex -4.85321 7 0
      vertex -5 7 7
      vertex -4.85321 7 7
    endloop
  endfacet
  facet normal 0 1 0
    outer loop
      vertex -5 7 7
      vertex -4.85321 7 0
      vertex -5 7 0
    endloop
  endfacet
  facet normal -1 0 0
    outer loop
      vertex -5 6.84367 0
      vertex -5 7 7
      vertex -5 7 0
    endloop
  endfacet
  facet normal -1 -0 0
    outer loop
      vertex -5 7 7
      vertex -5 6.84367 0
      vertex -5 6.84367 7
    endloop
  endfacet
  facet normal -0.728967 0.684548 0
    outer loop
      vertex -5.50302 6.30801 0
      vertex -5 6.84367 7
      vertex -5 6.84367 0
    endloop
  endfacet
  facet normal -0.728967 0.684548 0
    outer loop
      vertex -5 6.84367 7
      vertex -5.50302 6.30801 0
      vertex -5.50302 6.30801 7
    endloop
  endfacet
  facet normal -0.809021 0.58778 0
    outer loop
      vertex -5.79768 5.90244 0
      vertex -5.50302 6.30801 7
      vertex -5.50302 6.30801 0
    endloop
  endfacet
  facet normal -0.809021 0.58778 0
    outer loop
      vertex -5.50302 6.30801 7
      vertex -5.79768 5.90244 0
      vertex -5.79768 5.90244 7
    endloop
  endfacet
  facet normal -0.876302 0.481763 0
    outer loop
      vertex -6.40149 4.80414 0
      vertex -5.79768 5.90244 7
      vertex -5.79768 5.90244 0
    endloop
  endfacet
  facet normal -0.876302 0.481763 0
    outer loop
      vertex -5.79768 5.90244 7
      vertex -6.40149 4.80414 0
      vertex -6.40149 4.80414 7
    endloop
  endfacet
  facet normal -0.929782 0.368111 0
    outer loop
      vertex -6.58604 4.338 0
      vertex -6.40149 4.80414 7
      vertex -6.40149 4.80414 0
    endloop
  endfacet
  facet normal -0.929782 0.368111 0
    outer loop
      vertex -6.40149 4.80414 7
      vertex -6.58604 4.338 0
      vertex -6.58604 4.338 7
    endloop
  endfacet
  facet normal -0.968582 0.248696 0
    outer loop
      vertex -6.89774 3.12404 0
      vertex -6.58604 4.338 7
      vertex -6.58604 4.338 0
    endloop
  endfacet
  facet normal -0.968582 0.248696 0
    outer loop
      vertex -6.58604 4.338 7
      vertex -6.89774 3.12404 0
      vertex -6.89774 3.12404 7
    endloop
  endfacet
  facet normal -0.992116 0.125326 0
    outer loop
      vertex -6.96057 2.62666 0
      vertex -6.89774 3.12404 7
      vertex -6.89774 3.12404 0
    endloop
  endfacet
  facet normal -0.992116 0.125326 0
    outer loop
      vertex -6.89774 3.12404 7
      vertex -6.96057 2.62666 0
      vertex -6.96057 2.62666 7
    endloop
  endfacet
  facet normal -1 0 0
    outer loop
      vertex -6.96057 1.37334 0
      vertex -6.96057 2.62666 7
      vertex -6.96057 2.62666 0
    endloop
  endfacet
  facet normal -1 -0 0
    outer loop
      vertex -6.96057 2.62666 7
      vertex -6.96057 1.37334 0
      vertex -6.96057 1.37334 7
    endloop
  endfacet
  facet normal -0.992116 -0.125326 0
    outer loop
      vertex -6.89774 0.875961 0
      vertex -6.96057 1.37334 7
      vertex -6.96057 1.37334 0
    endloop
  endfacet
  facet normal -0.992116 -0.125326 0
    outer loop
      vertex -6.96057 1.37334 7
      vertex -6.89774 0.875961 0
      vertex -6.89774 0.875961 7
    endloop
  endfacet
  facet normal -0.968582 -0.248696 0
    outer loop
      vertex -6.58604 -0.337997 0
      vertex -6.89774 0.875961 7
      vertex -6.89774 0.875961 0
    endloop
  endfacet
  facet normal -0.968582 -0.248696 0
    outer loop
      vertex -6.89774 0.875961 7
      vertex -6.58604 -0.337997 0
      vertex -6.58604 -0.337997 7
    endloop
  endfacet
  facet normal -0.929782 -0.36811 0
    outer loop
      vertex -6.40149 -0.804138 0
      vertex -6.58604 -0.337997 7
      vertex -6.58604 -0.337997 0
    endloop
  endfacet
  facet normal -0.929782 -0.36811 0
    outer loop
      vertex -6.58604 -0.337997 7
      vertex -6.40149 -0.804138 0
      vertex -6.40149 -0.804138 7
    endloop
  endfacet
  facet normal -0.876302 -0.481762 0
    outer loop
      vertex -5.79768 -1.90244 0
      vertex -6.40149 -0.804138 7
      vertex -6.40149 -0.804138 0
    endloop
  endfacet
  facet normal -0.876302 -0.481762 0
    outer loop
      vertex -6.40149 -0.804138 7
      vertex -5.79768 -1.90244 0
      vertex -5.79768 -1.90244 7
    endloop
  endfacet
  facet normal -0.809021 -0.58778 0
    outer loop
      vertex -5.50302 -2.30801 0
      vertex -5.79768 -1.90244 7
      vertex -5.79768 -1.90244 0
    endloop
  endfacet
  facet normal -0.809021 -0.58778 0
    outer loop
      vertex -5.79768 -1.90244 7
      vertex -5.50302 -2.30801 0
      vertex -5.50302 -2.30801 7
    endloop
  endfacet
  facet normal -0.728975 -0.684541 0
    outer loop
      vertex -4.64507 -3.22165 0
      vertex -5.50302 -2.30801 7
      vertex -5.50302 -2.30801 0
    endloop
  endfacet
  facet normal -0.728975 -0.684541 0
    outer loop
      vertex -5.50302 -2.30801 7
      vertex -4.64507 -3.22165 0
      vertex -4.64507 -3.22165 7
    endloop
  endfacet
  facet normal -0.637406 -0.770528 0
    outer loop
      vertex -4.64507 -3.22165 0
      vertex -4.25877 -3.54121 7
      vertex -4.64507 -3.22165 7
    endloop
  endfacet
  facet normal -0.637406 -0.770528 -0
    outer loop
      vertex -4.25877 -3.54121 7
      vertex -4.64507 -3.22165 0
      vertex -4.25877 -3.54121 0
    endloop
  endfacet
  facet normal -0.535829 -0.844327 0
    outer loop
      vertex -4.25877 -3.54121 0
      vertex -3.20055 -4.21278 7
      vertex -4.25877 -3.54121 7
    endloop
  endfacet
  facet normal -0.535829 -0.844327 -0
    outer loop
      vertex -3.20055 -4.21278 7
      vertex -4.25877 -3.54121 0
      vertex -3.20055 -4.21278 0
    endloop
  endfacet
  facet normal -0.425776 -0.904829 0
    outer loop
      vertex -3.20055 -4.21278 0
      vertex -2.74692 -4.42624 7
      vertex -3.20055 -4.21278 7
    endloop
  endfacet
  facet normal -0.425776 -0.904829 -0
    outer loop
      vertex -2.74692 -4.42624 7
      vertex -3.20055 -4.21278 0
      vertex -2.74692 -4.42624 0
    endloop
  endfacet
  facet normal -0.309016 -0.951057 0
    outer loop
      vertex -2.74692 -4.42624 0
      vertex -1.55493 -4.81354 7
      vertex -2.74692 -4.42624 7
    endloop
  endfacet
  facet normal -0.309016 -0.951057 -0
    outer loop
      vertex -1.55493 -4.81354 7
      vertex -2.74692 -4.42624 0
      vertex -1.55493 -4.81354 0
    endloop
  endfacet
  facet normal -0.18737 -0.982289 0
    outer loop
      vertex -1.55493 -4.81354 0
      vertex -1.0625 -4.90747 7
      vertex -1.55493 -4.81354 7
    endloop
  endfacet
  facet normal -0.18737 -0.982289 -0
    outer loop
      vertex -1.0625 -4.90747 7
      vertex -1.55493 -4.81354 0
      vertex -1.0625 -4.90747 0
    endloop
  endfacet
  facet normal -0.0628008 -0.998026 0
    outer loop
      vertex -1.0625 -4.90747 0
      vertex 0.188354 -4.98618 7
      vertex -1.0625 -4.90747 7
    endloop
  endfacet
  facet normal -0.0628008 -0.998026 -0
    outer loop
      vertex 0.188354 -4.98618 7
      vertex -1.0625 -4.90747 0
      vertex 0.188354 -4.98618 0
    endloop
  endfacet
  facet normal 0.0627917 -0.998027 0
    outer loop
      vertex 0.188354 -4.98618 0
      vertex 0.688705 -4.9547 7
      vertex 0.188354 -4.98618 7
    endloop
  endfacet
  facet normal 0.0627917 -0.998027 0
    outer loop
      vertex 0.688705 -4.9547 7
      vertex 0.188354 -4.98618 0
      vertex 0.688705 -4.9547 0
    endloop
  endfacet
  facet normal 0.728968 0.684548 -0
    outer loop
      vertex -3.18712 -1.85255 1
      vertex -4 -0.986923 7
      vertex -3.18712 -1.85255 7
    endloop
  endfacet
  facet normal 0.728968 0.684548 0
    outer loop
      vertex -4 -0.986923 7
      vertex -3.18712 -1.85255 1
      vertex -4 -0.986923 0
    endloop
  endfacet
  facet normal 0.728968 0.684548 0
    outer loop
      vertex -4 -0.986923 0
      vertex -3.18712 -1.85255 1
      vertex -3.18712 -1.85255 0
    endloop
  endfacet
  facet normal 0 0 0
    outer loop
      vertex -4 4.98692 7
      vertex -4 4.98692 1
      vertex -4 4.98692 0
    endloop
  endfacet
  facet normal 1 0 0
    outer loop
      vertex -4 4.98692 7
      vertex -4 -0.986919 1
      vertex -4 4.98692 1
    endloop
  endfacet
  facet normal 1 -0 0
    outer loop
      vertex -4 -0.986923 7
      vertex -4 -0.986919 1
      vertex -4 4.98692 7
    endloop
  endfacet
  facet normal 1 0 0
    outer loop
      vertex -4 -0.986923 0
      vertex -4 -0.986919 1
      vertex -4 -0.986923 7
    endloop
  endfacet
  facet normal 1 0 0
    outer loop
      vertex -4 -0.986919 1
      vertex -4 -0.986923 0
      vertex -4 -0.986919 0
    endloop
  endfacet
  facet normal 0.728969 -0.684547 0
    outer loop
      vertex -4 4.98692 7
      vertex -3.18712 5.85255 1
      vertex -3.18712 5.85255 7
    endloop
  endfacet
  facet normal 0.728969 -0.684547 0
    outer loop
      vertex -4 4.98692 0
      vertex -3.18712 5.85255 1
      vertex -4 4.98692 7
    endloop
  endfacet
  facet normal 0.728969 -0.684547 0
    outer loop
      vertex -3.18712 5.85255 1
      vertex -4 4.98692 0
      vertex -3.18712 5.85255 0
    endloop
  endfacet
  facet normal -0.929779 -0.368118 0
    outer loop
      vertex 4.54337 4 1
      vertex 4.38153 4.40877 1
      vertex 4.38153 4.40877 0
    endloop
  endfacet
  facet normal -0.929779 -0.368118 -0
    outer loop
      vertex 4.54337 4 1
      vertex 4.38153 4.40877 0
      vertex 4.54337 4 0
    endloop
  endfacet
  facet normal -0.929779 -0.368118 0
    outer loop
      vertex 4.38153 4.40877 1
      vertex 4.54337 4 1
      vertex 4.38153 4.40877 7
    endloop
  endfacet
  facet normal -0.929778 -0.368121 -0
    outer loop
      vertex 4.84291 3.24344 7
      vertex 4.54337 4 1
      vertex 4.84291 3.24344 1
    endloop
  endfacet
  facet normal -0.929778 -0.36812 1.72259e-07
    outer loop
      vertex 4.54337 4 1
      vertex 4.84291 3.24344 7
      vertex 4.38153 4.40877 7
    endloop
  endfacet
  facet normal -0.992114 -0.125339 0
    outer loop
      vertex 5 2 1
      vertex 4.84291 3.24344 7
      vertex 4.84291 3.24344 1
    endloop
  endfacet
  facet normal -0.992114 -0.125339 0
    outer loop
      vertex 4.84291 3.24344 7
      vertex 5 2 1
      vertex 5 2 7
    endloop
  endfacet
  facet normal -0.992114 0.125339 0
    outer loop
      vertex 4.84291 0.756561 1
      vertex 5 2 7
      vertex 5 2 1
    endloop
  endfacet
  facet normal -0.992114 0.125339 0
    outer loop
      vertex 5 2 7
      vertex 4.84291 0.756561 1
      vertex 4.84291 0.756561 7
    endloop
  endfacet
  facet normal -0.929778 0.36812 0
    outer loop
      vertex 4.38153 -0.408768 1
      vertex 4.84291 0.756561 7
      vertex 4.84291 0.756561 1
    endloop
  endfacet
  facet normal -0.929778 0.36812 0
    outer loop
      vertex 4.84291 0.756561 7
      vertex 4.38153 -0.408768 1
      vertex 4.38153 -0.408768 7
    endloop
  endfacet
endsolid OpenSCAD_Model
