solid OpenSCAD_Model
  facet normal 0 0 -1
    outer loop
      vertex 6.95536 0 0
      vertex 18 4 0
      vertex 18 0 0
    endloop
  endfacet
  facet normal 0 0 -1
    outer loop
      vertex 6.95536 0 0
      vertex 6.95536 4 0
      vertex 18 4 0
    endloop
  endfacet
  facet normal 0 0 -1
    outer loop
      vertex 1.93716 1.50261 0
      vertex 6.95536 0 0
      vertex 6.94461 -0.0418701 0
    endloop
  endfacet
  facet normal 0 0 -1
    outer loop
      vertex 6.95536 0 0
      vertex 2 2 0
      vertex 6.95536 4 0
    endloop
  endfacet
  facet normal 0 0 -1
    outer loop
      vertex 1.93716 1.50261 0
      vertex 6.94461 -0.0418701 0
      vertex 6.46016 -1.26546 0
    endloop
  endfacet
  facet normal 0 0 -1
    outer loop
      vertex 1.93716 2.49738 0
      vertex 6.95536 4 0
      vertex 2 2 0
    endloop
  endfacet
  facet normal 0 0 -1
    outer loop
      vertex 1.75261 1.03648 0
      vertex 6.46016 -1.26546 0
      vertex 6.21863 -1.70477 0
    endloop
  endfacet
  facet normal -0 0 -1
    outer loop
      vertex 6.95536 4 0
      vertex 1.93716 2.49738 0
      vertex 6.94461 4.04187 0
    endloop
  endfacet
  facet normal 0 0 -1
    outer loop
      vertex 1.75261 1.03648 0
      vertex 6.21863 -1.70477 0
      vertex 5.4451 -2.76944 0
    endloop
  endfacet
  facet normal -0 0 -1
    outer loop
      vertex 6.94461 4.04187 0
      vertex 1.93716 2.49738 0
      vertex 6.46016 5.26546 0
    endloop
  endfacet
  facet normal 0 0 -1
    outer loop
      vertex 1.45793 0.630905 0
      vertex 5.4451 -2.76944 0
      vertex 5.10191 -3.1349 0
    endloop
  endfacet
  facet normal 0 0 -1
    outer loop
      vertex 1.75261 2.9635 0
      vertex 6.46016 5.26546 0
      vertex 1.93716 2.49738 0
    endloop
  endfacet
  facet normal 0 0 -1
    outer loop
      vertex 1.45793 0.630905 0
      vertex 5.10191 -3.1349 0
      vertex 4.08792 -3.97374 0
    endloop
  endfacet
  facet normal -0 0 -1
    outer loop
      vertex 6.46016 5.26546 0
      vertex 1.75261 2.9635 0
      vertex 6.21863 5.70477 0
    endloop
  endfacet
  facet normal 0 0 -1
    outer loop
      vertex 1.07164 0.31134 0
      vertex 4.08792 -3.97374 0
      vertex 3.66464 -4.24236 0
    endloop
  endfacet
  facet normal -0 0 -1
    outer loop
      vertex 6.21863 5.70477 0
      vertex 1.75261 2.9635 0
      vertex 5.4451 6.76944 0
    endloop
  endfacet
  facet normal 0 0 -1
    outer loop
      vertex 1.07164 0.31134 0
      vertex 3.66464 -4.24236 0
      vertex 2.47389 -4.80269 0
    endloop
  endfacet
  facet normal 0 0 -1
    outer loop
      vertex 1.45793 3.36908 0
      vertex 5.4451 6.76944 0
      vertex 1.75261 2.9635 0
    endloop
  endfacet
  facet normal -0 0 -1
    outer loop
      vertex 5.4451 6.76944 0
      vertex 1.45793 3.36908 0
      vertex 5.10191 7.1349 0
    endloop
  endfacet
  facet normal 0 0 -1
    outer loop
      vertex 0.618027 0.0978851 0
      vertex 2.47389 -4.80269 0
      vertex 1.9971 -4.95761 0
    endloop
  endfacet
  facet normal 0 0 -1
    outer loop
      vertex 6.95536 0 0
      vertex 1.93716 1.50261 0
      vertex 2 2 0
    endloop
  endfacet
  facet normal 0 0 -1
    outer loop
      vertex 6.46016 -1.26546 0
      vertex 1.75261 1.03648 0
      vertex 1.93716 1.50261 0
    endloop
  endfacet
  facet normal 0 0 -1
    outer loop
      vertex 5.4451 -2.76944 0
      vertex 1.45793 0.630905 0
      vertex 1.75261 1.03648 0
    endloop
  endfacet
  facet normal 0 0 -1
    outer loop
      vertex 4.08792 -3.97374 0
      vertex 1.07164 0.31134 0
      vertex 1.45793 0.630905 0
    endloop
  endfacet
  facet normal 0 0 -1
    outer loop
      vertex 0.618027 0.0978851 0
      vertex 1.9971 -4.95761 0
      vertex 0.704407 -5.20421 0
    endloop
  endfacet
  facet normal 0 0 -1
    outer loop
      vertex 2.47389 -4.80269 0
      vertex 0.618027 0.0978851 0
      vertex 1.07164 0.31134 0
    endloop
  endfacet
  facet normal 0 0 -1
    outer loop
      vertex 0.12558 0.00393677 0
      vertex 0.704407 -5.20421 0
      vertex 0.204041 -5.23569 0
    endloop
  endfacet
  facet normal 0 0 -1
    outer loop
      vertex 0.704407 -5.20421 0
      vertex 0.12558 0.00393677 0
      vertex 0.618027 0.0978851 0
    endloop
  endfacet
  facet normal 0 0 -1
    outer loop
      vertex 0.204041 -5.23569 0
      vertex -0.374756 0.0354156 0
      vertex 0.12558 0.00393677 0
    endloop
  endfacet
  facet normal 0 0 -1
    outer loop
      vertex -1.10934 -5.15305 0
      vertex -0.374756 0.0354156 0
      vertex 0.204041 -5.23569 0
    endloop
  endfacet
  facet normal 0 0 -1
    outer loop
      vertex -1.60178 -5.05911 0
      vertex -0.374756 0.0354156 0
      vertex -1.10934 -5.15305 0
    endloop
  endfacet
  facet normal -0 0 -1
    outer loop
      vertex -0.374756 0.0354156 0
      vertex -1.60178 -5.05911 0
      vertex -0.851547 0.190338 0
    endloop
  endfacet
  facet normal 0 0 -1
    outer loop
      vertex -2.85336 -4.65245 0
      vertex -0.851547 0.190338 0
      vertex -1.60178 -5.05911 0
    endloop
  endfacet
  facet normal 0 0 -1
    outer loop
      vertex -3.30701 -4.43898 0
      vertex -0.851547 0.190338 0
      vertex -2.85336 -4.65245 0
    endloop
  endfacet
  facet normal -0 0 -1
    outer loop
      vertex -0.851547 0.190338 0
      vertex -3.30701 -4.43898 0
      vertex -1.27484 0.458969 0
    endloop
  endfacet
  facet normal 0 0 -1
    outer loop
      vertex -4.41814 -3.73383 0
      vertex -1.27484 0.458969 0
      vertex -3.30701 -4.43898 0
    endloop
  endfacet
  facet normal -0 0 -1
    outer loop
      vertex -1.27484 0.458969 0
      vertex -4.8044 -3.41428 0
      vertex -1.61803 0.824417 0
    endloop
  endfacet
  facet normal 0 0 -1
    outer loop
      vertex -4.8044 -3.41428 0
      vertex -1.27484 0.458969 0
      vertex -4.41814 -3.73383 0
    endloop
  endfacet
  facet normal -0 0 -1
    outer loop
      vertex 5.10191 7.1349 0
      vertex 1.45793 3.36908 0
      vertex 4.08792 7.97374 0
    endloop
  endfacet
  facet normal 0 0 -1
    outer loop
      vertex 1.07164 3.68864 0
      vertex 4.08792 7.97374 0
      vertex 1.45793 3.36908 0
    endloop
  endfacet
  facet normal -0 0 -1
    outer loop
      vertex 4.08792 7.97374 0
      vertex 1.07164 3.68864 0
      vertex 3.66464 8.24236 0
    endloop
  endfacet
  facet normal -0 0 -1
    outer loop
      vertex 3.66464 8.24236 0
      vertex 1.07164 3.68864 0
      vertex 2.47389 8.80269 0
    endloop
  endfacet
  facet normal 0 0 -1
    outer loop
      vertex 0.618027 3.9021 0
      vertex 2.47389 8.80269 0
      vertex 1.07164 3.68864 0
    endloop
  endfacet
  facet normal -0 0 -1
    outer loop
      vertex 2.47389 8.80269 0
      vertex 0.618027 3.9021 0
      vertex 1.9971 8.95761 0
    endloop
  endfacet
  facet normal -0 0 -1
    outer loop
      vertex 1.9971 8.95761 0
      vertex 0.618027 3.9021 0
      vertex 0.704407 9.20421 0
    endloop
  endfacet
  facet normal 0 0 -1
    outer loop
      vertex 0.12558 3.99605 0
      vertex 0.704407 9.20421 0
      vertex 0.618027 3.9021 0
    endloop
  endfacet
  facet normal -0 0 -1
    outer loop
      vertex 0.704407 9.20421 0
      vertex 0.12558 3.99605 0
      vertex 0.204041 9.23569 0
    endloop
  endfacet
  facet normal 0 0 -1
    outer loop
      vertex -0.374756 3.96457 0
      vertex 0.204041 9.23569 0
      vertex 0.12558 3.99605 0
    endloop
  endfacet
  facet normal 0 0 -1
    outer loop
      vertex -1.60178 9.05911 0
      vertex -0.374756 3.96457 0
      vertex -0.851547 3.80965 0
    endloop
  endfacet
  facet normal 0 0 -1
    outer loop
      vertex -0.374756 3.96457 0
      vertex -1.10934 9.15305 0
      vertex 0.204041 9.23569 0
    endloop
  endfacet
  facet normal 0 0 -1
    outer loop
      vertex -3.30701 8.43898 0
      vertex -0.851547 3.80965 0
      vertex -1.27484 3.54102 0
    endloop
  endfacet
  facet normal 0 0 -1
    outer loop
      vertex -0.374756 3.96457 0
      vertex -1.60178 9.05911 0
      vertex -1.10934 9.15305 0
    endloop
  endfacet
  facet normal 0 0 -1
    outer loop
      vertex -4.8044 7.41428 0
      vertex -1.27484 3.54102 0
      vertex -1.61803 3.17557 0
    endloop
  endfacet
  facet normal 0 0 -1
    outer loop
      vertex -5.99994 6.04938 0
      vertex -1.61803 3.17557 0
      vertex -1.85954 2.73624 0
    endloop
  endfacet
  facet normal 0 0 -1
    outer loop
      vertex -6.81848 4.43002 0
      vertex -1.85954 2.73624 0
      vertex -1.98422 2.25066 0
    endloop
  endfacet
  facet normal 0 0 -1
    outer loop
      vertex -5.70526 -2.45496 0
      vertex -1.61803 0.824417 0
      vertex -4.8044 -3.41428 0
    endloop
  endfacet
  facet normal 0 0 -1
    outer loop
      vertex -0.851547 3.80965 0
      vertex -2.85336 8.65245 0
      vertex -1.60178 9.05911 0
    endloop
  endfacet
  facet normal 0 0 -1
    outer loop
      vertex -5.99994 -2.04938 0
      vertex -1.61803 0.824417 0
      vertex -5.70526 -2.45496 0
    endloop
  endfacet
  facet normal 0 0 -1
    outer loop
      vertex -0.851547 3.80965 0
      vertex -3.30701 8.43898 0
      vertex -2.85336 8.65245 0
    endloop
  endfacet
  facet normal -0 0 -1
    outer loop
      vertex -1.61803 0.824417 0
      vertex -5.99994 -2.04938 0
      vertex -1.85954 1.26375 0
    endloop
  endfacet
  facet normal 0 0 -1
    outer loop
      vertex -1.27484 3.54102 0
      vertex -4.41814 7.73383 0
      vertex -3.30701 8.43898 0
    endloop
  endfacet
  facet normal 0 0 -1
    outer loop
      vertex -6.63393 -0.896164 0
      vertex -1.85954 1.26375 0
      vertex -5.99994 -2.04938 0
    endloop
  endfacet
  facet normal 0 0 -1
    outer loop
      vertex -1.27484 3.54102 0
      vertex -4.8044 7.41428 0
      vertex -4.41814 7.73383 0
    endloop
  endfacet
  facet normal 0 0 -1
    outer loop
      vertex -6.81848 -0.430023 0
      vertex -1.85954 1.26375 0
      vertex -6.63393 -0.896164 0
    endloop
  endfacet
  facet normal 0 0 -1
    outer loop
      vertex -1.61803 3.17557 0
      vertex -5.70526 6.45496 0
      vertex -4.8044 7.41428 0
    endloop
  endfacet
  facet normal -0 0 -1
    outer loop
      vertex -1.85954 1.26375 0
      vertex -6.81848 -0.430023 0
      vertex -1.98422 1.74933 0
    endloop
  endfacet
  facet normal 0 0 -1
    outer loop
      vertex -1.61803 3.17557 0
      vertex -5.99994 6.04938 0
      vertex -5.70526 6.45496 0
    endloop
  endfacet
  facet normal 0 0 -1
    outer loop
      vertex -7.14575 0.844635 0
      vertex -1.98422 1.74933 0
      vertex -6.81848 -0.430023 0
    endloop
  endfacet
  facet normal 0 0 -1
    outer loop
      vertex -1.85954 2.73624 0
      vertex -6.63393 4.89616 0
      vertex -5.99994 6.04938 0
    endloop
  endfacet
  facet normal 0 0 -1
    outer loop
      vertex -7.20859 1.34201 0
      vertex -1.98422 1.74933 0
      vertex -7.14575 0.844635 0
    endloop
  endfacet
  facet normal 0 0 -1
    outer loop
      vertex -1.85954 2.73624 0
      vertex -6.81848 4.43002 0
      vertex -6.63393 4.89616 0
    endloop
  endfacet
  facet normal -0 0 -1
    outer loop
      vertex -1.98422 1.74933 0
      vertex -7.20859 1.34201 0
      vertex -1.98422 2.25066 0
    endloop
  endfacet
  facet normal 0 0 -1
    outer loop
      vertex -1.98422 2.25066 0
      vertex -7.14575 3.15536 0
      vertex -6.81848 4.43002 0
    endloop
  endfacet
  facet normal 0 0 -1
    outer loop
      vertex -7.20859 2.65799 0
      vertex -1.98422 2.25066 0
      vertex -7.20859 1.34201 0
    endloop
  endfacet
  facet normal 0 0 -1
    outer loop
      vertex -1.98422 2.25066 0
      vertex -7.20859 2.65799 0
      vertex -7.14575 3.15536 0
    endloop
  endfacet
  facet normal 0 0 1
    outer loop
      vertex 18 4 2
      vertex 17.8 2 2
      vertex 18 0 2
    endloop
  endfacet
  facet normal 0 0 1
    outer loop
      vertex 18 4 2
      vertex 7.23422 2.25069 2
      vertex 17.8 2 2
    endloop
  endfacet
  facet normal 0 0 1
    outer loop
      vertex 18 4 2
      vertex 7.06927 3.5563 2
      vertex 7.23422 2.25069 2
    endloop
  endfacet
  facet normal 0 -0 1
    outer loop
      vertex 7.06927 3.5563 2
      vertex 18 4 2
      vertex 6.95536 4 2
    endloop
  endfacet
  facet normal 0 0 1
    outer loop
      vertex 18 0 2
      vertex 17.8 2 2
      vertex 17.8 0 2
    endloop
  endfacet
  facet normal 0 0 1
    outer loop
      vertex 17.8 2 2
      vertex 7.23422 2.25069 2
      vertex 7.23422 2 2
    endloop
  endfacet
  facet normal 0 -1 0
    outer loop
      vertex 15.5442 0 4.33946
      vertex 17.8 0 2
      vertex 16.8 0 4.29999
    endloop
  endfacet
  facet normal 0 -1 0
    outer loop
      vertex 14.2933 0 4.4577
      vertex 17.8 0 2
      vertex 15.5442 0 4.33946
    endloop
  endfacet
  facet normal 0 -1 0
    outer loop
      vertex 18 0 0
      vertex 14.2933 0 4.4577
      vertex 13.0524 0 4.65425
    endloop
  endfacet
  facet normal 0 -1 0
    outer loop
      vertex 6.95536 0 0
      vertex 13.0524 0 4.65425
      vertex 11.8262 0 4.92833
    endloop
  endfacet
  facet normal 0 -1 0
    outer loop
      vertex 6.95536 0 0
      vertex 11.8262 0 4.92833
      vertex 10.6197 0 5.27887
    endloop
  endfacet
  facet normal 0 -1 0
    outer loop
      vertex 6.95536 0 0
      vertex 10.6197 0 5.27887
      vertex 9.4375 0 5.70447
    endloop
  endfacet
  facet normal 0 -1 0
    outer loop
      vertex 6.95536 0 0
      vertex 9.4375 0 5.70447
      vertex 8.2844 0 6.20345
    endloop
  endfacet
  facet normal 0 -1 0
    outer loop
      vertex 6.95536 0 0
      vertex 7.16491 0 6.77386
      vertex 6.95536 0 6.8978
    endloop
  endfacet
  facet normal 0 -1 0
    outer loop
      vertex 6.95536 0 0
      vertex 8.2844 0 6.20345
      vertex 7.16491 0 6.77386
    endloop
  endfacet
  facet normal 0 -1 -0
    outer loop
      vertex 13.0524 0 4.65425
      vertex 6.95536 0 0
      vertex 18 0 0
    endloop
  endfacet
  facet normal 0 -1 0
    outer loop
      vertex 14.2933 0 4.4577
      vertex 18 0 0
      vertex 17.8 0 2
    endloop
  endfacet
  facet normal 0 -1 0
    outer loop
      vertex 17.8 0 2
      vertex 18 0 0
      vertex 18 0 2
    endloop
  endfacet
  facet normal 0 -1 -0
    outer loop
      vertex 17.8 0 4.33142
      vertex 16.8 0 4.29999
      vertex 17.8 0 2
    endloop
  endfacet
  facet normal 1 -0 0
    outer loop
      vertex 18 0 2
      vertex 18 4 0
      vertex 18 4 2
    endloop
  endfacet
  facet normal 1 0 0
    outer loop
      vertex 18 4 0
      vertex 18 0 2
      vertex 18 0 0
    endloop
  endfacet
  facet normal 0 1 -0
    outer loop
      vertex 18 4 0
      vertex 6.95536 4 2
      vertex 18 4 2
    endloop
  endfacet
  facet normal 0 1 0
    outer loop
      vertex 6.95536 4 2
      vertex 18 4 0
      vertex 6.95536 4 0
    endloop
  endfacet
  facet normal 0.309024 0.951054 -0
    outer loop
      vertex -0.374756 0.0354156 0
      vertex -0.851547 0.190338 1
      vertex -0.374756 0.0354156 1
    endloop
  endfacet
  facet normal 0.309024 0.951054 0
    outer loop
      vertex -0.851547 0.190338 1
      vertex -0.374756 0.0354156 0
      vertex -0.851547 0.190338 0
    endloop
  endfacet
  facet normal 0.535828 0.844327 -0
    outer loop
      vertex -0.851547 0.190338 0
      vertex -1.27484 0.458969 1
      vertex -0.851547 0.190338 1
    endloop
  endfacet
  facet normal 0.535828 0.844327 0
    outer loop
      vertex -1.27484 0.458969 1
      vertex -0.851547 0.190338 0
      vertex -1.27484 0.458969 0
    endloop
  endfacet
  facet normal 0.728957 0.684559 0
    outer loop
      vertex -1.27484 0.458969 1
      vertex -1.61803 0.824417 0
      vertex -1.61803 0.824417 1
    endloop
  endfacet
  facet normal 0.728957 0.684559 0
    outer loop
      vertex -1.61803 0.824417 0
      vertex -1.27484 0.458969 1
      vertex -1.27484 0.458969 0
    endloop
  endfacet
  facet normal 0.87632 0.48173 0
    outer loop
      vertex -1.61803 0.824417 1
      vertex -1.85954 1.26375 0
      vertex -1.85954 1.26375 1
    endloop
  endfacet
  facet normal 0.87632 0.48173 0
    outer loop
      vertex -1.85954 1.26375 0
      vertex -1.61803 0.824417 1
      vertex -1.61803 0.824417 0
    endloop
  endfacet
  facet normal 0.968581 0.248698 0
    outer loop
      vertex -1.85954 1.26375 1
      vertex -1.98422 1.74933 0
      vertex -1.98422 1.74933 1
    endloop
  endfacet
  facet normal 0.968581 0.248698 0
    outer loop
      vertex -1.98422 1.74933 0
      vertex -1.85954 1.26375 1
      vertex -1.85954 1.26375 0
    endloop
  endfacet
  facet normal 1 -0 0
    outer loop
      vertex -1.98422 1.74933 1
      vertex -1.98422 2.25066 0
      vertex -1.98422 2.25066 1
    endloop
  endfacet
  facet normal 1 0 0
    outer loop
      vertex -1.98422 2.25066 0
      vertex -1.98422 1.74933 1
      vertex -1.98422 1.74933 0
    endloop
  endfacet
  facet normal 0.968581 -0.248698 0
    outer loop
      vertex -1.98422 2.25066 1
      vertex -1.85954 2.73624 0
      vertex -1.85954 2.73624 1
    endloop
  endfacet
  facet normal 0.968581 -0.248698 0
    outer loop
      vertex -1.85954 2.73624 0
      vertex -1.98422 2.25066 1
      vertex -1.98422 2.25066 0
    endloop
  endfacet
  facet normal 0.876318 -0.481733 0
    outer loop
      vertex -1.85954 2.73624 1
      vertex -1.61803 3.17557 0
      vertex -1.61803 3.17557 1
    endloop
  endfacet
  facet normal 0.876318 -0.481733 0
    outer loop
      vertex -1.61803 3.17557 0
      vertex -1.85954 2.73624 1
      vertex -1.85954 2.73624 0
    endloop
  endfacet
  facet normal 0.728959 -0.684557 0
    outer loop
      vertex -1.61803 3.17557 1
      vertex -1.27484 3.54102 0
      vertex -1.27484 3.54102 1
    endloop
  endfacet
  facet normal 0.728959 -0.684557 0
    outer loop
      vertex -1.27484 3.54102 0
      vertex -1.61803 3.17557 1
      vertex -1.61803 3.17557 0
    endloop
  endfacet
  facet normal 0.535827 -0.844328 0
    outer loop
      vertex -1.27484 3.54102 0
      vertex -0.851547 3.80965 1
      vertex -1.27484 3.54102 1
    endloop
  endfacet
  facet normal 0.535827 -0.844328 0
    outer loop
      vertex -0.851547 3.80965 1
      vertex -1.27484 3.54102 0
      vertex -0.851547 3.80965 0
    endloop
  endfacet
  facet normal 0.309019 -0.951056 0
    outer loop
      vertex -0.851547 3.80965 0
      vertex -0.374756 3.96457 1
      vertex -0.851547 3.80965 1
    endloop
  endfacet
  facet normal 0.309019 -0.951056 0
    outer loop
      vertex -0.374756 3.96457 1
      vertex -0.851547 3.80965 0
      vertex -0.374756 3.96457 0
    endloop
  endfacet
  facet normal 0.0627936 -0.998027 0
    outer loop
      vertex -0.374756 3.96457 0
      vertex 0.12558 3.99605 1
      vertex -0.374756 3.96457 1
    endloop
  endfacet
  facet normal 0.0627936 -0.998027 0
    outer loop
      vertex 0.12558 3.99605 1
      vertex -0.374756 3.96457 0
      vertex 0.12558 3.99605 0
    endloop
  endfacet
  facet normal -0.187402 -0.982283 0
    outer loop
      vertex 0.12558 3.99605 0
      vertex 0.618027 3.9021 1
      vertex 0.12558 3.99605 1
    endloop
  endfacet
  facet normal -0.187402 -0.982283 -0
    outer loop
      vertex 0.618027 3.9021 1
      vertex 0.12558 3.99605 0
      vertex 0.618027 3.9021 0
    endloop
  endfacet
  facet normal -0.425789 -0.904822 0
    outer loop
      vertex 0.618027 3.9021 0
      vertex 1.07164 3.68864 1
      vertex 0.618027 3.9021 1
    endloop
  endfacet
  facet normal -0.425789 -0.904822 -0
    outer loop
      vertex 1.07164 3.68864 1
      vertex 0.618027 3.9021 0
      vertex 1.07164 3.68864 0
    endloop
  endfacet
  facet normal -0.637416 -0.77052 0
    outer loop
      vertex 1.07164 3.68864 0
      vertex 1.45793 3.36908 1
      vertex 1.07164 3.68864 1
    endloop
  endfacet
  facet normal -0.637416 -0.77052 -0
    outer loop
      vertex 1.45793 3.36908 1
      vertex 1.07164 3.68864 0
      vertex 1.45793 3.36908 0
    endloop
  endfacet
  facet normal -0.809009 -0.587797 0
    outer loop
      vertex 1.75261 2.9635 0
      vertex 1.45793 3.36908 1
      vertex 1.45793 3.36908 0
    endloop
  endfacet
  facet normal -0.809009 -0.587797 0
    outer loop
      vertex 1.45793 3.36908 1
      vertex 1.75261 2.9635 0
      vertex 1.75261 2.9635 1
    endloop
  endfacet
  facet normal -0.929776 -0.368125 0
    outer loop
      vertex 1.93716 2.49738 0
      vertex 1.75261 2.9635 1
      vertex 1.75261 2.9635 0
    endloop
  endfacet
  facet normal -0.929776 -0.368125 0
    outer loop
      vertex 1.75261 2.9635 1
      vertex 1.93716 2.49738 0
      vertex 1.93716 2.49738 1
    endloop
  endfacet
  facet normal -0.992113 -0.125346 0
    outer loop
      vertex 2 2 0
      vertex 1.93716 2.49738 1
      vertex 1.93716 2.49738 0
    endloop
  endfacet
  facet normal -0.992113 -0.125346 0
    outer loop
      vertex 1.93716 2.49738 1
      vertex 2 2 0
      vertex 2 2 1
    endloop
  endfacet
  facet normal -0.992113 0.125343 0
    outer loop
      vertex 1.93716 1.50261 0
      vertex 2 2 1
      vertex 2 2 0
    endloop
  endfacet
  facet normal -0.992113 0.125343 0
    outer loop
      vertex 2 2 1
      vertex 1.93716 1.50261 0
      vertex 1.93716 1.50261 1
    endloop
  endfacet
  facet normal -0.929779 0.368118 0
    outer loop
      vertex 1.75261 1.03648 0
      vertex 1.93716 1.50261 1
      vertex 1.93716 1.50261 0
    endloop
  endfacet
  facet normal -0.929779 0.368118 0
    outer loop
      vertex 1.93716 1.50261 1
      vertex 1.75261 1.03648 0
      vertex 1.75261 1.03648 1
    endloop
  endfacet
  facet normal -0.809005 0.587802 0
    outer loop
      vertex 1.45793 0.630905 0
      vertex 1.75261 1.03648 1
      vertex 1.75261 1.03648 0
    endloop
  endfacet
  facet normal -0.809005 0.587802 0
    outer loop
      vertex 1.75261 1.03648 1
      vertex 1.45793 0.630905 0
      vertex 1.45793 0.630905 1
    endloop
  endfacet
  facet normal -0.637422 0.770515 0
    outer loop
      vertex 1.45793 0.630905 0
      vertex 1.07164 0.31134 1
      vertex 1.45793 0.630905 1
    endloop
  endfacet
  facet normal -0.637422 0.770515 0
    outer loop
      vertex 1.07164 0.31134 1
      vertex 1.45793 0.630905 0
      vertex 1.07164 0.31134 0
    endloop
  endfacet
  facet normal -0.425781 0.904826 0
    outer loop
      vertex 1.07164 0.31134 0
      vertex 0.618027 0.0978851 1
      vertex 1.07164 0.31134 1
    endloop
  endfacet
  facet normal -0.425781 0.904826 0
    outer loop
      vertex 0.618027 0.0978851 1
      vertex 1.07164 0.31134 0
      vertex 0.618027 0.0978851 0
    endloop
  endfacet
  facet normal -0.187399 0.982284 0
    outer loop
      vertex 0.618027 0.0978851 0
      vertex 0.12558 0.00393677 1
      vertex 0.618027 0.0978851 1
    endloop
  endfacet
  facet normal -0.187399 0.982284 0
    outer loop
      vertex 0.12558 0.00393677 1
      vertex 0.618027 0.0978851 0
      vertex 0.12558 0.00393677 0
    endloop
  endfacet
  facet normal 0.0627912 0.998027 -0
    outer loop
      vertex 0.12558 0.00393677 0
      vertex -0.374756 0.0354156 1
      vertex 0.12558 0.00393677 1
    endloop
  endfacet
  facet normal 0.0627912 0.998027 0
    outer loop
      vertex -0.374756 0.0354156 1
      vertex 0.12558 0.00393677 0
      vertex -0.374756 0.0354156 0
    endloop
  endfacet
  facet normal 0 0 1
    outer loop
      vertex 2 2 1
      vertex 5.25 2 1
      vertex 5.08505 3.30562 1
    endloop
  endfacet
  facet normal 0 0 1
    outer loop
      vertex 1.93716 2.49738 1
      vertex 5.08505 3.30562 1
      vertex 4.6006 4.52921 1
    endloop
  endfacet
  facet normal 0 0 1
    outer loop
      vertex 5.25 2 1
      vertex 2 2 1
      vertex 5.08505 0.694382 1
    endloop
  endfacet
  facet normal 0 0 1
    outer loop
      vertex 1.75261 2.9635 1
      vertex 4.6006 4.52921 1
      vertex 3.82707 5.59387 1
    endloop
  endfacet
  facet normal -0 0 1
    outer loop
      vertex 1.93716 1.50261 1
      vertex 5.08505 0.694382 1
      vertex 2 2 1
    endloop
  endfacet
  facet normal 0 0 1
    outer loop
      vertex 1.45793 3.36908 1
      vertex 3.82707 5.59387 1
      vertex 2.81308 6.43271 1
    endloop
  endfacet
  facet normal 0 0 1
    outer loop
      vertex 5.08505 0.694382 1
      vertex 1.93716 1.50261 1
      vertex 4.6006 -0.529205 1
    endloop
  endfacet
  facet normal -0 0 1
    outer loop
      vertex 1.75261 1.03648 1
      vertex 4.6006 -0.529205 1
      vertex 1.93716 1.50261 1
    endloop
  endfacet
  facet normal 0 0 1
    outer loop
      vertex 5.08505 3.30562 1
      vertex 1.93716 2.49738 1
      vertex 2 2 1
    endloop
  endfacet
  facet normal 0 0 1
    outer loop
      vertex 4.6006 4.52921 1
      vertex 1.75261 2.9635 1
      vertex 1.93716 2.49738 1
    endloop
  endfacet
  facet normal 0 0 1
    outer loop
      vertex 1.07164 3.68864 1
      vertex 2.81308 6.43271 1
      vertex 1.62233 6.99304 1
    endloop
  endfacet
  facet normal 0 0 1
    outer loop
      vertex 3.82707 5.59387 1
      vertex 1.45793 3.36908 1
      vertex 1.75261 2.9635 1
    endloop
  endfacet
  facet normal 0 0 1
    outer loop
      vertex 2.81308 6.43271 1
      vertex 1.07164 3.68864 1
      vertex 1.45793 3.36908 1
    endloop
  endfacet
  facet normal 0 0 1
    outer loop
      vertex 1.62233 6.99304 1
      vertex 0.618027 3.9021 1
      vertex 1.07164 3.68864 1
    endloop
  endfacet
  facet normal 0 0 1
    outer loop
      vertex 0.329636 7.23964 1
      vertex 0.618027 3.9021 1
      vertex 1.62233 6.99304 1
    endloop
  endfacet
  facet normal 0 0 1
    outer loop
      vertex 0.329636 7.23964 1
      vertex 0.12558 3.99605 1
      vertex 0.618027 3.9021 1
    endloop
  endfacet
  facet normal 0 0 1
    outer loop
      vertex 0.329636 7.23964 1
      vertex -0.374756 3.96457 1
      vertex 0.12558 3.99605 1
    endloop
  endfacet
  facet normal -0 0 1
    outer loop
      vertex -0.983749 7.157 1
      vertex -0.374756 3.96457 1
      vertex 0.329636 7.23964 1
    endloop
  endfacet
  facet normal 0 0 1
    outer loop
      vertex -0.374756 3.96457 1
      vertex -0.983749 7.157 1
      vertex -0.851547 3.80965 1
    endloop
  endfacet
  facet normal -0 0 1
    outer loop
      vertex -2.23534 6.75034 1
      vertex -0.851547 3.80965 1
      vertex -0.983749 7.157 1
    endloop
  endfacet
  facet normal 0 0 1
    outer loop
      vertex -0.851547 3.80965 1
      vertex -2.23534 6.75034 1
      vertex -1.27484 3.54102 1
    endloop
  endfacet
  facet normal -0 0 1
    outer loop
      vertex -3.34647 6.04518 1
      vertex -1.27484 3.54102 1
      vertex -2.23534 6.75034 1
    endloop
  endfacet
  facet normal 0 0 1
    outer loop
      vertex -1.27484 3.54102 1
      vertex -3.34647 6.04518 1
      vertex -1.61803 3.17557 1
    endloop
  endfacet
  facet normal -0 0 1
    outer loop
      vertex -4.5 4.62625 1
      vertex -1.61803 3.17557 1
      vertex -4.24733 5.08586 1
    endloop
  endfacet
  facet normal -0 0 1
    outer loop
      vertex -4.24733 5.08586 1
      vertex -1.61803 3.17557 1
      vertex -3.34647 6.04518 1
    endloop
  endfacet
  facet normal 0 0 1
    outer loop
      vertex 4.6006 -0.529205 1
      vertex 1.75261 1.03648 1
      vertex 3.82707 -1.59387 1
    endloop
  endfacet
  facet normal -0 0 1
    outer loop
      vertex 1.45793 0.630905 1
      vertex 3.82707 -1.59387 1
      vertex 1.75261 1.03648 1
    endloop
  endfacet
  facet normal 0 0 1
    outer loop
      vertex 3.82707 -1.59387 1
      vertex 1.45793 0.630905 1
      vertex 2.81308 -2.43271 1
    endloop
  endfacet
  facet normal -0 0 1
    outer loop
      vertex 1.07164 0.31134 1
      vertex 2.81308 -2.43271 1
      vertex 1.45793 0.630905 1
    endloop
  endfacet
  facet normal 0 0 1
    outer loop
      vertex 2.81308 -2.43271 1
      vertex 1.07164 0.31134 1
      vertex 1.62233 -2.99304 1
    endloop
  endfacet
  facet normal -0 0 1
    outer loop
      vertex 0.618027 0.0978851 1
      vertex 1.62233 -2.99304 1
      vertex 1.07164 0.31134 1
    endloop
  endfacet
  facet normal 0 0 1
    outer loop
      vertex 0.618027 0.0978851 1
      vertex 0.329636 -3.23964 1
      vertex 1.62233 -2.99304 1
    endloop
  endfacet
  facet normal -0 0 1
    outer loop
      vertex 0.12558 0.00393677 1
      vertex 0.329636 -3.23964 1
      vertex 0.618027 0.0978851 1
    endloop
  endfacet
  facet normal 0 0 1
    outer loop
      vertex -0.374756 0.0354156 1
      vertex 0.329636 -3.23964 1
      vertex 0.12558 0.00393677 1
    endloop
  endfacet
  facet normal 0 0 1
    outer loop
      vertex -0.983749 -3.157 1
      vertex -0.374756 0.0354156 1
      vertex -0.851547 0.190338 1
    endloop
  endfacet
  facet normal 0 0 1
    outer loop
      vertex -0.374756 0.0354156 1
      vertex -0.983749 -3.157 1
      vertex 0.329636 -3.23964 1
    endloop
  endfacet
  facet normal 0 0 1
    outer loop
      vertex -2.23534 -2.75034 1
      vertex -0.851547 0.190338 1
      vertex -1.27484 0.458969 1
    endloop
  endfacet
  facet normal 0 0 1
    outer loop
      vertex -3.34647 -2.04518 1
      vertex -1.27484 0.458969 1
      vertex -1.61803 0.824417 1
    endloop
  endfacet
  facet normal 0 0 1
    outer loop
      vertex -4.5 -0.626251 1
      vertex -1.61803 0.824417 1
      vertex -1.85954 1.26375 1
    endloop
  endfacet
  facet normal 0 0 1
    outer loop
      vertex -4.5 -0.626251 1
      vertex -1.85954 1.26375 1
      vertex -1.98422 1.74933 1
    endloop
  endfacet
  facet normal 0 0 1
    outer loop
      vertex -0.851547 0.190338 1
      vertex -2.23534 -2.75034 1
      vertex -0.983749 -3.157 1
    endloop
  endfacet
  facet normal 0 0 1
    outer loop
      vertex -1.61803 3.17557 1
      vertex -4.5 4.62625 1
      vertex -1.85954 2.73624 1
    endloop
  endfacet
  facet normal 0 0 1
    outer loop
      vertex -1.85954 2.73624 1
      vertex -4.5 4.62625 1
      vertex -1.98422 2.25066 1
    endloop
  endfacet
  facet normal 0 0 1
    outer loop
      vertex -4.5 -0.626251 1
      vertex -1.98422 1.74933 1
      vertex -4.5 4.62625 1
    endloop
  endfacet
  facet normal 0 0 1
    outer loop
      vertex -1.98422 2.25066 1
      vertex -4.5 4.62625 1
      vertex -1.98422 1.74933 1
    endloop
  endfacet
  facet normal 0 0 1
    outer loop
      vertex -1.61803 0.824417 1
      vertex -4.5 -0.626251 1
      vertex -4.24733 -1.08586 1
    endloop
  endfacet
  facet normal 0 0 1
    outer loop
      vertex -1.27484 0.458969 1
      vertex -3.34647 -2.04518 1
      vertex -2.23534 -2.75034 1
    endloop
  endfacet
  facet normal 0 0 1
    outer loop
      vertex -1.61803 0.824417 1
      vertex -4.24733 -1.08586 1
      vertex -3.34647 -2.04518 1
    endloop
  endfacet
  facet normal 0 1 0
    outer loop
      vertex 17.8 2 4.33142
      vertex 17.8 2 2
      vertex 16.8 2 4.29999
    endloop
  endfacet
  facet normal 0 1 0
    outer loop
      vertex 17.8 2 2
      vertex 15.5442 2 4.33946
      vertex 16.8 2 4.29999
    endloop
  endfacet
  facet normal 0 1 0
    outer loop
      vertex 17.8 2 2
      vertex 14.2933 2 4.4577
      vertex 15.5442 2 4.33946
    endloop
  endfacet
  facet normal 0 1 0
    outer loop
      vertex 17.8 2 2
      vertex 13.0524 2 4.65425
      vertex 14.2933 2 4.4577
    endloop
  endfacet
  facet normal 0 1 0
    outer loop
      vertex 7.23422 2 2
      vertex 13.0524 2 4.65425
      vertex 17.8 2 2
    endloop
  endfacet
  facet normal 0 1 0
    outer loop
      vertex 13.0524 2 4.65425
      vertex 7.23422 2 2
      vertex 11.8262 2 4.92833
    endloop
  endfacet
  facet normal 0 1 0
    outer loop
      vertex 11.8262 2 4.92833
      vertex 7.23422 2 2
      vertex 10.6197 2 5.27887
    endloop
  endfacet
  facet normal 0 1 0
    outer loop
      vertex 10.6197 2 5.27887
      vertex 7.23422 2 2
      vertex 9.4375 2 5.70447
    endloop
  endfacet
  facet normal 0 1 0
    outer loop
      vertex 8.2844 2 6.20345
      vertex 7.23422 2 2
      vertex 7.23422 2 6.73855
    endloop
  endfacet
  facet normal 0 1 0
    outer loop
      vertex 9.4375 2 5.70447
      vertex 7.23422 2 2
      vertex 8.2844 2 6.20345
    endloop
  endfacet
  facet normal -0.0314145 0 0.999506
    outer loop
      vertex 16.8 2 4.29999
      vertex 17.8 0 4.33142
      vertex 17.8 2 4.33142
    endloop
  endfacet
  facet normal -0.0314145 0 0.999506
    outer loop
      vertex 17.8 0 4.33142
      vertex 16.8 2 4.29999
      vertex 16.8 0 4.29999
    endloop
  endfacet
  facet normal 0.0314147 0 0.999506
    outer loop
      vertex 15.5442 2 4.33946
      vertex 16.8 0 4.29999
      vertex 16.8 2 4.29999
    endloop
  endfacet
  facet normal 0.0314147 0 0.999506
    outer loop
      vertex 16.8 0 4.29999
      vertex 15.5442 2 4.33946
      vertex 15.5442 0 4.33946
    endloop
  endfacet
  facet normal 0.0941045 0 0.995562
    outer loop
      vertex 14.2933 2 4.4577
      vertex 15.5442 0 4.33946
      vertex 15.5442 2 4.33946
    endloop
  endfacet
  facet normal 0.0941045 0 0.995562
    outer loop
      vertex 15.5442 0 4.33946
      vertex 14.2933 2 4.4577
      vertex 14.2933 0 4.4577
    endloop
  endfacet
  facet normal 0.156443 0 0.987687
    outer loop
      vertex 13.0524 2 4.65425
      vertex 14.2933 0 4.4577
      vertex 14.2933 2 4.4577
    endloop
  endfacet
  facet normal 0.156443 0 0.987687
    outer loop
      vertex 14.2933 0 4.4577
      vertex 13.0524 2 4.65425
      vertex 13.0524 0 4.65425
    endloop
  endfacet
  facet normal 0.218137 0 0.975918
    outer loop
      vertex 11.8262 2 4.92833
      vertex 13.0524 0 4.65425
      vertex 13.0524 2 4.65425
    endloop
  endfacet
  facet normal 0.218137 0 0.975918
    outer loop
      vertex 13.0524 0 4.65425
      vertex 11.8262 2 4.92833
      vertex 11.8262 0 4.92833
    endloop
  endfacet
  facet normal 0.279005 0 0.96029
    outer loop
      vertex 10.6197 2 5.27887
      vertex 11.8262 0 4.92833
      vertex 11.8262 2 4.92833
    endloop
  endfacet
  facet normal 0.279005 0 0.96029
    outer loop
      vertex 11.8262 0 4.92833
      vertex 10.6197 2 5.27887
      vertex 10.6197 0 5.27887
    endloop
  endfacet
  facet normal 0.338725 0 0.940885
    outer loop
      vertex 9.4375 2 5.70447
      vertex 10.6197 0 5.27887
      vertex 10.6197 2 5.27887
    endloop
  endfacet
  facet normal 0.338725 0 0.940885
    outer loop
      vertex 10.6197 0 5.27887
      vertex 9.4375 2 5.70447
      vertex 9.4375 0 5.70447
    endloop
  endfacet
  facet normal 0.397141 0 0.917758
    outer loop
      vertex 8.2844 2 6.20345
      vertex 9.4375 0 5.70447
      vertex 9.4375 2 5.70447
    endloop
  endfacet
  facet normal 0.397141 0 0.917758
    outer loop
      vertex 9.4375 0 5.70447
      vertex 8.2844 2 6.20345
      vertex 8.2844 0 6.20345
    endloop
  endfacet
  facet normal 0.453995 -0 0.891004
    outer loop
      vertex 7.23422 1.74931 6.73855
      vertex 8.2844 2 6.20345
      vertex 7.23422 2 6.73855
    endloop
  endfacet
  facet normal 0.453997 -9.44848e-06 0.891003
    outer loop
      vertex 7.16491 1.20071 6.77386
      vertex 8.2844 2 6.20345
      vertex 7.23422 1.74931 6.73855
    endloop
  endfacet
  facet normal 0.453991 0 0.891006
    outer loop
      vertex 8.2844 2 6.20345
      vertex 7.16491 1.20071 6.77386
      vertex 8.2844 0 6.20345
    endloop
  endfacet
  facet normal 0.453991 0 0.891006
    outer loop
      vertex 8.2844 0 6.20345
      vertex 7.16491 1.20071 6.77386
      vertex 7.16491 0 6.77386
    endloop
  endfacet
  facet normal 0.509099 0 0.860708
    outer loop
      vertex 7.06927 0.443695 6.83043
      vertex 7.16491 0 6.77386
      vertex 7.16491 1.20071 6.77386
    endloop
  endfacet
  facet normal 0.509079 -5.75718e-06 0.86072
    outer loop
      vertex 7.16491 0 6.77386
      vertex 7.06927 0.443695 6.83043
      vertex 6.95536 0 6.8978
    endloop
  endfacet
  facet normal 1 -0 0
    outer loop
      vertex 17.8 0 4.33142
      vertex 17.8 2 2
      vertex 17.8 2 4.33142
    endloop
  endfacet
  facet normal 1 0 0
    outer loop
      vertex 17.8 2 2
      vertex 17.8 0 4.33142
      vertex 17.8 0 2
    endloop
  endfacet
  facet normal 0 0 1
    outer loop
      vertex 5.25 2 7
      vertex 7.23422 2.25069 7
      vertex 7.06927 3.5563 7
    endloop
  endfacet
  facet normal 0 0 1
    outer loop
      vertex 7.23422 2.25069 7
      vertex 5.25 2 7
      vertex 7.23422 1.74931 7
    endloop
  endfacet
  facet normal 0 0 1
    outer loop
      vertex 5.08505 3.30562 7
      vertex 7.06927 3.5563 7
      vertex 6.94461 4.04187 7
    endloop
  endfacet
  facet normal 0 0 1
    outer loop
      vertex 7.23422 1.74931 7
      vertex 5.25 2 7
      vertex 7.06927 0.443695 7
    endloop
  endfacet
  facet normal 0 0 1
    outer loop
      vertex 5.08505 3.30562 7
      vertex 6.94461 4.04187 7
      vertex 6.46016 5.26546 7
    endloop
  endfacet
  facet normal -0 0 1
    outer loop
      vertex 5.08505 0.694382 7
      vertex 7.06927 0.443695 7
      vertex 5.25 2 7
    endloop
  endfacet
  facet normal 0 0 1
    outer loop
      vertex 4.6006 4.52921 7
      vertex 6.46016 5.26546 7
      vertex 6.21863 5.70477 7
    endloop
  endfacet
  facet normal 0 0 1
    outer loop
      vertex 7.06927 0.443695 7
      vertex 5.08505 0.694382 7
      vertex 6.94461 -0.0418701 7
    endloop
  endfacet
  facet normal 0 0 1
    outer loop
      vertex 4.6006 4.52921 7
      vertex 6.21863 5.70477 7
      vertex 5.4451 6.76944 7
    endloop
  endfacet
  facet normal 0 0 1
    outer loop
      vertex 6.94461 -0.0418701 7
      vertex 5.08505 0.694382 7
      vertex 6.46016 -1.26546 7
    endloop
  endfacet
  facet normal -0 0 1
    outer loop
      vertex 4.6006 -0.529205 7
      vertex 6.46016 -1.26546 7
      vertex 5.08505 0.694382 7
    endloop
  endfacet
  facet normal 0 0 1
    outer loop
      vertex 3.82707 5.59387 7
      vertex 5.4451 6.76944 7
      vertex 5.10191 7.1349 7
    endloop
  endfacet
  facet normal 0 0 1
    outer loop
      vertex 7.06927 3.5563 7
      vertex 5.08505 3.30562 7
      vertex 5.25 2 7
    endloop
  endfacet
  facet normal 0 0 1
    outer loop
      vertex 6.46016 5.26546 7
      vertex 4.6006 4.52921 7
      vertex 5.08505 3.30562 7
    endloop
  endfacet
  facet normal 0 0 1
    outer loop
      vertex 3.82707 5.59387 7
      vertex 5.10191 7.1349 7
      vertex 4.08792 7.97374 7
    endloop
  endfacet
  facet normal 0 0 1
    outer loop
      vertex 5.4451 6.76944 7
      vertex 3.82707 5.59387 7
      vertex 4.6006 4.52921 7
    endloop
  endfacet
  facet normal 0 0 1
    outer loop
      vertex 2.81308 6.43271 7
      vertex 4.08792 7.97374 7
      vertex 3.66464 8.24236 7
    endloop
  endfacet
  facet normal 0 0 1
    outer loop
      vertex 4.08792 7.97374 7
      vertex 2.81308 6.43271 7
      vertex 3.82707 5.59387 7
    endloop
  endfacet
  facet normal 0 0 1
    outer loop
      vertex 2.47389 8.80269 7
      vertex 2.81308 6.43271 7
      vertex 3.66464 8.24236 7
    endloop
  endfacet
  facet normal 0 0 1
    outer loop
      vertex 1.62233 6.99304 7
      vertex 2.47389 8.80269 7
      vertex 1.9971 8.95761 7
    endloop
  endfacet
  facet normal 0 0 1
    outer loop
      vertex 2.47389 8.80269 7
      vertex 1.62233 6.99304 7
      vertex 2.81308 6.43271 7
    endloop
  endfacet
  facet normal 0 0 1
    outer loop
      vertex 0.704407 9.20421 7
      vertex 1.62233 6.99304 7
      vertex 1.9971 8.95761 7
    endloop
  endfacet
  facet normal 0 0 1
    outer loop
      vertex 0.704407 9.20421 7
      vertex 0.329636 7.23964 7
      vertex 1.62233 6.99304 7
    endloop
  endfacet
  facet normal 0 0 1
    outer loop
      vertex 0.204041 9.23569 7
      vertex 0.329636 7.23964 7
      vertex 0.704407 9.20421 7
    endloop
  endfacet
  facet normal 0 0 1
    outer loop
      vertex 0.204041 9.23569 7
      vertex -0.983749 7.157 7
      vertex 0.329636 7.23964 7
    endloop
  endfacet
  facet normal -0 0 1
    outer loop
      vertex -1.10934 9.15305 7
      vertex -0.983749 7.157 7
      vertex 0.204041 9.23569 7
    endloop
  endfacet
  facet normal -0 0 1
    outer loop
      vertex -1.60178 9.05911 7
      vertex -0.983749 7.157 7
      vertex -1.10934 9.15305 7
    endloop
  endfacet
  facet normal 0 0 1
    outer loop
      vertex -1.60178 9.05911 7
      vertex -2.23534 6.75034 7
      vertex -0.983749 7.157 7
    endloop
  endfacet
  facet normal -0 0 1
    outer loop
      vertex -2.85336 8.65245 7
      vertex -2.23534 6.75034 7
      vertex -1.60178 9.05911 7
    endloop
  endfacet
  facet normal -0 0 1
    outer loop
      vertex -3.30701 8.43898 7
      vertex -2.23534 6.75034 7
      vertex -2.85336 8.65245 7
    endloop
  endfacet
  facet normal 0 0 1
    outer loop
      vertex -3.30701 8.43898 7
      vertex -3.34647 6.04518 7
      vertex -2.23534 6.75034 7
    endloop
  endfacet
  facet normal -0 0 1
    outer loop
      vertex -4.41814 7.73383 7
      vertex -3.34647 6.04518 7
      vertex -3.30701 8.43898 7
    endloop
  endfacet
  facet normal -0 0 1
    outer loop
      vertex -4.8044 7.41428 7
      vertex -3.34647 6.04518 7
      vertex -4.41814 7.73383 7
    endloop
  endfacet
  facet normal 0 0 1
    outer loop
      vertex -3.34647 6.04518 7
      vertex -4.8044 7.41428 7
      vertex -4.24733 5.08586 7
    endloop
  endfacet
  facet normal -0 0 1
    outer loop
      vertex -5.99994 6.04938 7
      vertex -4.24733 5.08586 7
      vertex -5.70526 6.45496 7
    endloop
  endfacet
  facet normal -0 0 1
    outer loop
      vertex -5.70526 6.45496 7
      vertex -4.24733 5.08586 7
      vertex -4.8044 7.41428 7
    endloop
  endfacet
  facet normal 0 0 1
    outer loop
      vertex 6.46016 -1.26546 7
      vertex 4.6006 -0.529205 7
      vertex 6.21863 -1.70477 7
    endloop
  endfacet
  facet normal 0 0 1
    outer loop
      vertex 6.21863 -1.70477 7
      vertex 4.6006 -0.529205 7
      vertex 5.4451 -2.76944 7
    endloop
  endfacet
  facet normal -0 0 1
    outer loop
      vertex 3.82707 -1.59387 7
      vertex 5.4451 -2.76944 7
      vertex 4.6006 -0.529205 7
    endloop
  endfacet
  facet normal 0 0 1
    outer loop
      vertex 5.4451 -2.76944 7
      vertex 3.82707 -1.59387 7
      vertex 5.10191 -3.1349 7
    endloop
  endfacet
  facet normal 0 0 1
    outer loop
      vertex 5.10191 -3.1349 7
      vertex 3.82707 -1.59387 7
      vertex 4.08792 -3.97374 7
    endloop
  endfacet
  facet normal -0 0 1
    outer loop
      vertex 2.81308 -2.43271 7
      vertex 4.08792 -3.97374 7
      vertex 3.82707 -1.59387 7
    endloop
  endfacet
  facet normal 0 0 1
    outer loop
      vertex 4.08792 -3.97374 7
      vertex 2.81308 -2.43271 7
      vertex 3.66464 -4.24236 7
    endloop
  endfacet
  facet normal 0 0 1
    outer loop
      vertex 2.81308 -2.43271 7
      vertex 2.47389 -4.80269 7
      vertex 3.66464 -4.24236 7
    endloop
  endfacet
  facet normal -0 0 1
    outer loop
      vertex 1.62233 -2.99304 7
      vertex 2.47389 -4.80269 7
      vertex 2.81308 -2.43271 7
    endloop
  endfacet
  facet normal 0 0 1
    outer loop
      vertex 2.47389 -4.80269 7
      vertex 1.62233 -2.99304 7
      vertex 1.9971 -4.95761 7
    endloop
  endfacet
  facet normal 0 0 1
    outer loop
      vertex 1.62233 -2.99304 7
      vertex 0.704407 -5.20421 7
      vertex 1.9971 -4.95761 7
    endloop
  endfacet
  facet normal -0 0 1
    outer loop
      vertex 0.329636 -3.23964 7
      vertex 0.704407 -5.20421 7
      vertex 1.62233 -2.99304 7
    endloop
  endfacet
  facet normal 0 0 1
    outer loop
      vertex 0.329636 -3.23964 7
      vertex 0.204041 -5.23569 7
      vertex 0.704407 -5.20421 7
    endloop
  endfacet
  facet normal 0 0 1
    outer loop
      vertex -0.983749 -3.157 7
      vertex 0.204041 -5.23569 7
      vertex 0.329636 -3.23964 7
    endloop
  endfacet
  facet normal 0 0 1
    outer loop
      vertex -0.983749 -3.157 7
      vertex -1.10934 -5.15305 7
      vertex 0.204041 -5.23569 7
    endloop
  endfacet
  facet normal 0 0 1
    outer loop
      vertex -0.983749 -3.157 7
      vertex -1.60178 -5.05911 7
      vertex -1.10934 -5.15305 7
    endloop
  endfacet
  facet normal 0 0 1
    outer loop
      vertex -2.23534 -2.75034 7
      vertex -1.60178 -5.05911 7
      vertex -0.983749 -3.157 7
    endloop
  endfacet
  facet normal 0 0 1
    outer loop
      vertex -2.23534 -2.75034 7
      vertex -2.85336 -4.65245 7
      vertex -1.60178 -5.05911 7
    endloop
  endfacet
  facet normal 0 0 1
    outer loop
      vertex -2.23534 -2.75034 7
      vertex -3.30701 -4.43898 7
      vertex -2.85336 -4.65245 7
    endloop
  endfacet
  facet normal 0 0 1
    outer loop
      vertex -3.34647 -2.04518 7
      vertex -3.30701 -4.43898 7
      vertex -2.23534 -2.75034 7
    endloop
  endfacet
  facet normal 0 0 1
    outer loop
      vertex -4.8044 -3.41428 7
      vertex -3.34647 -2.04518 7
      vertex -4.24733 -1.08586 7
    endloop
  endfacet
  facet normal 0 0 1
    outer loop
      vertex -3.34647 -2.04518 7
      vertex -4.41814 -3.73383 7
      vertex -3.30701 -4.43898 7
    endloop
  endfacet
  facet normal 0 0 1
    outer loop
      vertex -5.99994 -2.04938 7
      vertex -4.24733 -1.08586 7
      vertex -4.5 -0.626251 7
    endloop
  endfacet
  facet normal 0 0 1
    outer loop
      vertex -4.24733 5.08586 7
      vertex -5.99994 6.04938 7
      vertex -4.5 4.62625 7
    endloop
  endfacet
  facet normal 0 0 1
    outer loop
      vertex -3.34647 -2.04518 7
      vertex -4.8044 -3.41428 7
      vertex -4.41814 -3.73383 7
    endloop
  endfacet
  facet normal -0 0 1
    outer loop
      vertex -6.63393 4.89616 7
      vertex -4.5 4.62625 7
      vertex -5.99994 6.04938 7
    endloop
  endfacet
  facet normal 0 0 1
    outer loop
      vertex -4.24733 -1.08586 7
      vertex -5.70526 -2.45496 7
      vertex -4.8044 -3.41428 7
    endloop
  endfacet
  facet normal 0 0 1
    outer loop
      vertex -6.81848 4.43002 7
      vertex -4.5 4.62625 7
      vertex -6.63393 4.89616 7
    endloop
  endfacet
  facet normal 0 0 1
    outer loop
      vertex -4.24733 -1.08586 7
      vertex -5.99994 -2.04938 7
      vertex -5.70526 -2.45496 7
    endloop
  endfacet
  facet normal 0 0 1
    outer loop
      vertex -7.14575 3.15536 7
      vertex -4.5 4.62625 7
      vertex -6.81848 4.43002 7
    endloop
  endfacet
  facet normal 0 0 1
    outer loop
      vertex -4.5 -0.626251 7
      vertex -6.63393 -0.896164 7
      vertex -5.99994 -2.04938 7
    endloop
  endfacet
  facet normal 0 0 1
    outer loop
      vertex -7.20859 2.65799 7
      vertex -4.5 4.62625 7
      vertex -7.14575 3.15536 7
    endloop
  endfacet
  facet normal 0 0 1
    outer loop
      vertex -4.5 -0.626251 7
      vertex -6.81848 -0.430023 7
      vertex -6.63393 -0.896164 7
    endloop
  endfacet
  facet normal 0 0 1
    outer loop
      vertex -4.5 4.62625 7
      vertex -7.20859 2.65799 7
      vertex -4.5 -0.626251 7
    endloop
  endfacet
  facet normal 0 0 1
    outer loop
      vertex -4.5 -0.626251 7
      vertex -7.14575 0.844635 7
      vertex -6.81848 -0.430023 7
    endloop
  endfacet
  facet normal -0 0 1
    outer loop
      vertex -7.20859 1.34201 7
      vertex -4.5 -0.626251 7
      vertex -7.20859 2.65799 7
    endloop
  endfacet
  facet normal 0 0 1
    outer loop
      vertex -4.5 -0.626251 7
      vertex -7.20859 1.34201 7
      vertex -7.14575 0.844635 7
    endloop
  endfacet
  facet normal 0.187385 -0.982286 0
    outer loop
      vertex 0.704407 -5.20421 0
      vertex 1.9971 -4.95761 7
      vertex 0.704407 -5.20421 7
    endloop
  endfacet
  facet normal 0.187385 -0.982286 0
    outer loop
      vertex 1.9971 -4.95761 7
      vertex 0.704407 -5.20421 0
      vertex 1.9971 -4.95761 0
    endloop
  endfacet
  facet normal 0.30902 -0.951056 0
    outer loop
      vertex 1.9971 -4.95761 0
      vertex 2.47389 -4.80269 7
      vertex 1.9971 -4.95761 7
    endloop
  endfacet
  facet normal 0.30902 -0.951056 0
    outer loop
      vertex 2.47389 -4.80269 7
      vertex 1.9971 -4.95761 0
      vertex 2.47389 -4.80269 0
    endloop
  endfacet
  facet normal 0.425783 -0.904825 0
    outer loop
      vertex 2.47389 -4.80269 0
      vertex 3.66464 -4.24236 7
      vertex 2.47389 -4.80269 7
    endloop
  endfacet
  facet normal 0.425783 -0.904825 0
    outer loop
      vertex 3.66464 -4.24236 7
      vertex 2.47389 -4.80269 0
      vertex 3.66464 -4.24236 0
    endloop
  endfacet
  facet normal 0.535824 -0.844329 0
    outer loop
      vertex 3.66464 -4.24236 0
      vertex 4.08792 -3.97374 7
      vertex 3.66464 -4.24236 7
    endloop
  endfacet
  facet normal 0.535824 -0.844329 0
    outer loop
      vertex 4.08792 -3.97374 7
      vertex 3.66464 -4.24236 0
      vertex 4.08792 -3.97374 0
    endloop
  endfacet
  facet normal 0.637422 -0.770515 0
    outer loop
      vertex 4.08792 -3.97374 0
      vertex 5.10191 -3.1349 7
      vertex 4.08792 -3.97374 7
    endloop
  endfacet
  facet normal 0.637422 -0.770515 0
    outer loop
      vertex 5.10191 -3.1349 7
      vertex 4.08792 -3.97374 0
      vertex 5.10191 -3.1349 0
    endloop
  endfacet
  facet normal 0.728968 -0.684547 0
    outer loop
      vertex 5.10191 -3.1349 7
      vertex 5.4451 -2.76944 0
      vertex 5.4451 -2.76944 7
    endloop
  endfacet
  facet normal 0.728968 -0.684547 0
    outer loop
      vertex 5.4451 -2.76944 0
      vertex 5.10191 -3.1349 7
      vertex 5.10191 -3.1349 0
    endloop
  endfacet
  facet normal 0.809016 -0.587786 0
    outer loop
      vertex 5.4451 -2.76944 7
      vertex 6.21863 -1.70477 0
      vertex 6.21863 -1.70477 7
    endloop
  endfacet
  facet normal 0.809016 -0.587786 0
    outer loop
      vertex 6.21863 -1.70477 0
      vertex 5.4451 -2.76944 7
      vertex 5.4451 -2.76944 0
    endloop
  endfacet
  facet normal 0.876292 -0.48178 0
    outer loop
      vertex 6.21863 -1.70477 7
      vertex 6.46016 -1.26546 0
      vertex 6.46016 -1.26546 7
    endloop
  endfacet
  facet normal 0.876292 -0.48178 0
    outer loop
      vertex 6.46016 -1.26546 0
      vertex 6.21863 -1.70477 7
      vertex 6.21863 -1.70477 0
    endloop
  endfacet
  facet normal 0.929777 -0.368122 0
    outer loop
      vertex 6.46016 -1.26546 7
      vertex 6.94461 -0.0418701 0
      vertex 6.94461 -0.0418701 7
    endloop
  endfacet
  facet normal 0.929777 -0.368122 0
    outer loop
      vertex 6.94461 -0.0418701 0
      vertex 6.46016 -1.26546 7
      vertex 6.46016 -1.26546 0
    endloop
  endfacet
  facet normal 0.968589 -0.248666 0
    outer loop
      vertex 7.06927 0.443695 7
      vertex 6.95536 0 6.8978
      vertex 7.06927 0.443695 6.83043
    endloop
  endfacet
  facet normal 0.968589 -0.248668 5.81955e-06
    outer loop
      vertex 6.94461 -0.0418701 7
      vertex 6.95536 0 6.8978
      vertex 7.06927 0.443695 7
    endloop
  endfacet
  facet normal 0.968585 -0.248681 0
    outer loop
      vertex 6.94461 -0.0418701 0
      vertex 6.95536 0 6.8978
      vertex 6.94461 -0.0418701 7
    endloop
  endfacet
  facet normal 0.968585 -0.248681 0
    outer loop
      vertex 6.95536 0 6.8978
      vertex 6.94461 -0.0418701 0
      vertex 6.95536 0 0
    endloop
  endfacet
  facet normal 0.992113 -0.125343 0
    outer loop
      vertex 7.23422 1.74931 7
      vertex 7.16491 1.20071 6.77386
      vertex 7.23422 1.74931 6.73855
    endloop
  endfacet
  facet normal 0.992114 -0.125343 -2.03512e-06
    outer loop
      vertex 7.06927 0.443695 7
      vertex 7.16491 1.20071 6.77386
      vertex 7.23422 1.74931 7
    endloop
  endfacet
  facet normal 0.992114 -0.125342 0
    outer loop
      vertex 7.16491 1.20071 6.77386
      vertex 7.06927 0.443695 7
      vertex 7.06927 0.443695 6.83043
    endloop
  endfacet
  facet normal 1 0 0
    outer loop
      vertex 7.23422 2.25069 7
      vertex 7.23422 2 6.73855
      vertex 7.23422 2.25069 2
    endloop
  endfacet
  facet normal 1 -0 0
    outer loop
      vertex 7.23422 1.74931 7
      vertex 7.23422 2 6.73855
      vertex 7.23422 2.25069 7
    endloop
  endfacet
  facet normal 1 0 0
    outer loop
      vertex 7.23422 2 6.73855
      vertex 7.23422 1.74931 7
      vertex 7.23422 1.74931 6.73855
    endloop
  endfacet
  facet normal 1 0 0
    outer loop
      vertex 7.23422 2.25069 2
      vertex 7.23422 2 6.73855
      vertex 7.23422 2 2
    endloop
  endfacet
  facet normal 0.992113 0.125343 0
    outer loop
      vertex 7.23422 2.25069 7
      vertex 7.06927 3.5563 2
      vertex 7.06927 3.5563 7
    endloop
  endfacet
  facet normal 0.992113 0.125343 0
    outer loop
      vertex 7.06927 3.5563 2
      vertex 7.23422 2.25069 7
      vertex 7.23422 2.25069 2
    endloop
  endfacet
  facet normal 0.968585 0.248681 0
    outer loop
      vertex 6.94461 4.04187 7
      vertex 6.95536 4 2
      vertex 6.94461 4.04187 0
    endloop
  endfacet
  facet normal 0.968589 0.248665 1.44938e-07
    outer loop
      vertex 7.06927 3.5563 7
      vertex 6.95536 4 2
      vertex 6.94461 4.04187 7
    endloop
  endfacet
  facet normal 0.96859 0.248664 0
    outer loop
      vertex 6.95536 4 2
      vertex 7.06927 3.5563 7
      vertex 7.06927 3.5563 2
    endloop
  endfacet
  facet normal 0.968585 0.248681 0
    outer loop
      vertex 6.94461 4.04187 0
      vertex 6.95536 4 2
      vertex 6.95536 4 0
    endloop
  endfacet
  facet normal 0.929777 0.368122 0
    outer loop
      vertex 6.94461 4.04187 7
      vertex 6.46016 5.26546 0
      vertex 6.46016 5.26546 7
    endloop
  endfacet
  facet normal 0.929777 0.368122 0
    outer loop
      vertex 6.46016 5.26546 0
      vertex 6.94461 4.04187 7
      vertex 6.94461 4.04187 0
    endloop
  endfacet
  facet normal 0.876292 0.48178 0
    outer loop
      vertex 6.46016 5.26546 7
      vertex 6.21863 5.70477 0
      vertex 6.21863 5.70477 7
    endloop
  endfacet
  facet normal 0.876292 0.48178 0
    outer loop
      vertex 6.21863 5.70477 0
      vertex 6.46016 5.26546 7
      vertex 6.46016 5.26546 0
    endloop
  endfacet
  facet normal 0.809016 0.587786 0
    outer loop
      vertex 6.21863 5.70477 7
      vertex 5.4451 6.76944 0
      vertex 5.4451 6.76944 7
    endloop
  endfacet
  facet normal 0.809016 0.587786 0
    outer loop
      vertex 5.4451 6.76944 0
      vertex 6.21863 5.70477 7
      vertex 6.21863 5.70477 0
    endloop
  endfacet
  facet normal 0.728968 0.684547 0
    outer loop
      vertex 5.4451 6.76944 7
      vertex 5.10191 7.1349 0
      vertex 5.10191 7.1349 7
    endloop
  endfacet
  facet normal 0.728968 0.684547 0
    outer loop
      vertex 5.10191 7.1349 0
      vertex 5.4451 6.76944 7
      vertex 5.4451 6.76944 0
    endloop
  endfacet
  facet normal 0.637422 0.770515 -0
    outer loop
      vertex 5.10191 7.1349 0
      vertex 4.08792 7.97374 7
      vertex 5.10191 7.1349 7
    endloop
  endfacet
  facet normal 0.637422 0.770515 0
    outer loop
      vertex 4.08792 7.97374 7
      vertex 5.10191 7.1349 0
      vertex 4.08792 7.97374 0
    endloop
  endfacet
  facet normal 0.535824 0.844329 -0
    outer loop
      vertex 4.08792 7.97374 0
      vertex 3.66464 8.24236 7
      vertex 4.08792 7.97374 7
    endloop
  endfacet
  facet normal 0.535824 0.844329 0
    outer loop
      vertex 3.66464 8.24236 7
      vertex 4.08792 7.97374 0
      vertex 3.66464 8.24236 0
    endloop
  endfacet
  facet normal 0.425783 0.904825 -0
    outer loop
      vertex 3.66464 8.24236 0
      vertex 2.47389 8.80269 7
      vertex 3.66464 8.24236 7
    endloop
  endfacet
  facet normal 0.425783 0.904825 0
    outer loop
      vertex 2.47389 8.80269 7
      vertex 3.66464 8.24236 0
      vertex 2.47389 8.80269 0
    endloop
  endfacet
  facet normal 0.30902 0.951056 -0
    outer loop
      vertex 2.47389 8.80269 0
      vertex 1.9971 8.95761 7
      vertex 2.47389 8.80269 7
    endloop
  endfacet
  facet normal 0.30902 0.951056 0
    outer loop
      vertex 1.9971 8.95761 7
      vertex 2.47389 8.80269 0
      vertex 1.9971 8.95761 0
    endloop
  endfacet
  facet normal 0.187385 0.982286 -0
    outer loop
      vertex 1.9971 8.95761 0
      vertex 0.704407 9.20421 7
      vertex 1.9971 8.95761 7
    endloop
  endfacet
  facet normal 0.187385 0.982286 0
    outer loop
      vertex 0.704407 9.20421 7
      vertex 1.9971 8.95761 0
      vertex 0.704407 9.20421 0
    endloop
  endfacet
  facet normal 0.0627898 0.998027 -0
    outer loop
      vertex 0.704407 9.20421 0
      vertex 0.204041 9.23569 7
      vertex 0.704407 9.20421 7
    endloop
  endfacet
  facet normal 0.0627898 0.998027 0
    outer loop
      vertex 0.204041 9.23569 7
      vertex 0.704407 9.20421 0
      vertex 0.204041 9.23569 0
    endloop
  endfacet
  facet normal -0.0627974 0.998026 0
    outer loop
      vertex 0.204041 9.23569 0
      vertex -1.10934 9.15305 7
      vertex 0.204041 9.23569 7
    endloop
  endfacet
  facet normal -0.0627974 0.998026 0
    outer loop
      vertex -1.10934 9.15305 7
      vertex 0.204041 9.23569 0
      vertex -1.10934 9.15305 0
    endloop
  endfacet
  facet normal -0.187385 0.982286 0
    outer loop
      vertex -1.10934 9.15305 0
      vertex -1.60178 9.05911 7
      vertex -1.10934 9.15305 7
    endloop
  endfacet
  facet normal -0.187385 0.982286 0
    outer loop
      vertex -1.60178 9.05911 7
      vertex -1.10934 9.15305 0
      vertex -1.60178 9.05911 0
    endloop
  endfacet
  facet normal -0.309015 0.951057 0
    outer loop
      vertex -1.60178 9.05911 0
      vertex -2.85336 8.65245 7
      vertex -1.60178 9.05911 7
    endloop
  endfacet
  facet normal -0.309015 0.951057 0
    outer loop
      vertex -2.85336 8.65245 7
      vertex -1.60178 9.05911 0
      vertex -2.85336 8.65245 0
    endloop
  endfacet
  facet normal -0.425777 0.904828 0
    outer loop
      vertex -2.85336 8.65245 0
      vertex -3.30701 8.43898 7
      vertex -2.85336 8.65245 7
    endloop
  endfacet
  facet normal -0.425777 0.904828 0
    outer loop
      vertex -3.30701 8.43898 7
      vertex -2.85336 8.65245 0
      vertex -3.30701 8.43898 0
    endloop
  endfacet
  facet normal -0.53583 0.844326 0
    outer loop
      vertex -3.30701 8.43898 0
      vertex -4.41814 7.73383 7
      vertex -3.30701 8.43898 7
    endloop
  endfacet
  facet normal -0.53583 0.844326 0
    outer loop
      vertex -4.41814 7.73383 7
      vertex -3.30701 8.43898 0
      vertex -4.41814 7.73383 0
    endloop
  endfacet
  facet normal -0.637433 0.770505 0
    outer loop
      vertex -4.41814 7.73383 0
      vertex -4.8044 7.41428 7
      vertex -4.41814 7.73383 7
    endloop
  endfacet
  facet normal -0.637433 0.770505 0
    outer loop
      vertex -4.8044 7.41428 7
      vertex -4.41814 7.73383 0
      vertex -4.8044 7.41428 0
    endloop
  endfacet
  facet normal -0.728969 0.684547 0
    outer loop
      vertex -5.70526 6.45496 0
      vertex -4.8044 7.41428 7
      vertex -4.8044 7.41428 0
    endloop
  endfacet
  facet normal -0.728969 0.684547 0
    outer loop
      vertex -4.8044 7.41428 7
      vertex -5.70526 6.45496 0
      vertex -5.70526 6.45496 7
    endloop
  endfacet
  facet normal -0.809009 0.587797 0
    outer loop
      vertex -5.99994 6.04938 0
      vertex -5.70526 6.45496 7
      vertex -5.70526 6.45496 0
    endloop
  endfacet
  facet normal -0.809009 0.587797 0
    outer loop
      vertex -5.70526 6.45496 7
      vertex -5.99994 6.04938 0
      vertex -5.99994 6.04938 7
    endloop
  endfacet
  facet normal -0.876306 0.481755 0
    outer loop
      vertex -6.63393 4.89616 0
      vertex -5.99994 6.04938 7
      vertex -5.99994 6.04938 0
    endloop
  endfacet
  facet normal -0.876306 0.481755 0
    outer loop
      vertex -5.99994 6.04938 7
      vertex -6.63393 4.89616 0
      vertex -6.63393 4.89616 7
    endloop
  endfacet
  facet normal -0.929782 0.368111 0
    outer loop
      vertex -6.81848 4.43002 0
      vertex -6.63393 4.89616 7
      vertex -6.63393 4.89616 0
    endloop
  endfacet
  facet normal -0.929782 0.368111 0
    outer loop
      vertex -6.63393 4.89616 7
      vertex -6.81848 4.43002 0
      vertex -6.81848 4.43002 7
    endloop
  endfacet
  facet normal -0.968584 0.248685 0
    outer loop
      vertex -7.14575 3.15536 0
      vertex -6.81848 4.43002 7
      vertex -6.81848 4.43002 0
    endloop
  endfacet
  facet normal -0.968584 0.248685 0
    outer loop
      vertex -6.81848 4.43002 7
      vertex -7.14575 3.15536 0
      vertex -7.14575 3.15536 7
    endloop
  endfacet
  facet normal -0.992113 0.125348 0
    outer loop
      vertex -7.20859 2.65799 0
      vertex -7.14575 3.15536 7
      vertex -7.14575 3.15536 0
    endloop
  endfacet
  facet normal -0.992113 0.125348 0
    outer loop
      vertex -7.14575 3.15536 7
      vertex -7.20859 2.65799 0
      vertex -7.20859 2.65799 7
    endloop
  endfacet
  facet normal -1 0 0
    outer loop
      vertex -7.20859 1.34201 0
      vertex -7.20859 2.65799 7
      vertex -7.20859 2.65799 0
    endloop
  endfacet
  facet normal -1 -0 0
    outer loop
      vertex -7.20859 2.65799 7
      vertex -7.20859 1.34201 0
      vertex -7.20859 1.34201 7
    endloop
  endfacet
  facet normal -0.992113 -0.125347 0
    outer loop
      vertex -7.14575 0.844635 0
      vertex -7.20859 1.34201 7
      vertex -7.20859 1.34201 0
    endloop
  endfacet
  facet normal -0.992113 -0.125347 0
    outer loop
      vertex -7.20859 1.34201 7
      vertex -7.14575 0.844635 0
      vertex -7.14575 0.844635 7
    endloop
  endfacet
  facet normal -0.968584 -0.248685 0
    outer loop
      vertex -6.81848 -0.430023 0
      vertex -7.14575 0.844635 7
      vertex -7.14575 0.844635 0
    endloop
  endfacet
  facet normal -0.968584 -0.248685 0
    outer loop
      vertex -7.14575 0.844635 7
      vertex -6.81848 -0.430023 0
      vertex -6.81848 -0.430023 7
    endloop
  endfacet
  facet normal -0.929782 -0.36811 0
    outer loop
      vertex -6.63393 -0.896164 0
      vertex -6.81848 -0.430023 7
      vertex -6.81848 -0.430023 0
    endloop
  endfacet
  facet normal -0.929782 -0.36811 0
    outer loop
      vertex -6.81848 -0.430023 7
      vertex -6.63393 -0.896164 0
      vertex -6.63393 -0.896164 7
    endloop
  endfacet
  facet normal -0.876305 -0.481756 0
    outer loop
      vertex -5.99994 -2.04938 0
      vertex -6.63393 -0.896164 7
      vertex -6.63393 -0.896164 0
    endloop
  endfacet
  facet normal -0.876305 -0.481756 0
    outer loop
      vertex -6.63393 -0.896164 7
      vertex -5.99994 -2.04938 0
      vertex -5.99994 -2.04938 7
    endloop
  endfacet
  facet normal -0.809009 -0.587797 0
    outer loop
      vertex -5.70526 -2.45496 0
      vertex -5.99994 -2.04938 7
      vertex -5.99994 -2.04938 0
    endloop
  endfacet
  facet normal -0.809009 -0.587797 0
    outer loop
      vertex -5.99994 -2.04938 7
      vertex -5.70526 -2.45496 0
      vertex -5.70526 -2.45496 7
    endloop
  endfacet
  facet normal -0.728969 -0.684547 0
    outer loop
      vertex -4.8044 -3.41428 0
      vertex -5.70526 -2.45496 7
      vertex -5.70526 -2.45496 0
    endloop
  endfacet
  facet normal -0.728969 -0.684547 0
    outer loop
      vertex -5.70526 -2.45496 7
      vertex -4.8044 -3.41428 0
      vertex -4.8044 -3.41428 7
    endloop
  endfacet
  facet normal -0.637433 -0.770505 0
    outer loop
      vertex -4.8044 -3.41428 0
      vertex -4.41814 -3.73383 7
      vertex -4.8044 -3.41428 7
    endloop
  endfacet
  facet normal -0.637433 -0.770505 -0
    outer loop
      vertex -4.41814 -3.73383 7
      vertex -4.8044 -3.41428 0
      vertex -4.41814 -3.73383 0
    endloop
  endfacet
  facet normal -0.53583 -0.844326 0
    outer loop
      vertex -4.41814 -3.73383 0
      vertex -3.30701 -4.43898 7
      vertex -4.41814 -3.73383 7
    endloop
  endfacet
  facet normal -0.53583 -0.844326 -0
    outer loop
      vertex -3.30701 -4.43898 7
      vertex -4.41814 -3.73383 0
      vertex -3.30701 -4.43898 0
    endloop
  endfacet
  facet normal -0.425777 -0.904828 0
    outer loop
      vertex -3.30701 -4.43898 0
      vertex -2.85336 -4.65245 7
      vertex -3.30701 -4.43898 7
    endloop
  endfacet
  facet normal -0.425777 -0.904828 -0
    outer loop
      vertex -2.85336 -4.65245 7
      vertex -3.30701 -4.43898 0
      vertex -2.85336 -4.65245 0
    endloop
  endfacet
  facet normal -0.309015 -0.951057 0
    outer loop
      vertex -2.85336 -4.65245 0
      vertex -1.60178 -5.05911 7
      vertex -2.85336 -4.65245 7
    endloop
  endfacet
  facet normal -0.309015 -0.951057 -0
    outer loop
      vertex -1.60178 -5.05911 7
      vertex -2.85336 -4.65245 0
      vertex -1.60178 -5.05911 0
    endloop
  endfacet
  facet normal -0.187385 -0.982286 0
    outer loop
      vertex -1.60178 -5.05911 0
      vertex -1.10934 -5.15305 7
      vertex -1.60178 -5.05911 7
    endloop
  endfacet
  facet normal -0.187385 -0.982286 -0
    outer loop
      vertex -1.10934 -5.15305 7
      vertex -1.60178 -5.05911 0
      vertex -1.10934 -5.15305 0
    endloop
  endfacet
  facet normal -0.0627974 -0.998026 0
    outer loop
      vertex -1.10934 -5.15305 0
      vertex 0.204041 -5.23569 7
      vertex -1.10934 -5.15305 7
    endloop
  endfacet
  facet normal -0.0627974 -0.998026 -0
    outer loop
      vertex 0.204041 -5.23569 7
      vertex -1.10934 -5.15305 0
      vertex 0.204041 -5.23569 0
    endloop
  endfacet
  facet normal 0.0627898 -0.998027 0
    outer loop
      vertex 0.204041 -5.23569 0
      vertex 0.704407 -5.20421 7
      vertex 0.204041 -5.23569 7
    endloop
  endfacet
  facet normal 0.0627898 -0.998027 0
    outer loop
      vertex 0.704407 -5.20421 7
      vertex 0.204041 -5.23569 0
      vertex 0.704407 -5.20421 0
    endloop
  endfacet
  facet normal 0.309012 0.951058 -0
    outer loop
      vertex -0.983749 -3.157 1
      vertex -2.23534 -2.75034 7
      vertex -0.983749 -3.157 7
    endloop
  endfacet
  facet normal 0.309012 0.951058 0
    outer loop
      vertex -2.23534 -2.75034 7
      vertex -0.983749 -3.157 1
      vertex -2.23534 -2.75034 1
    endloop
  endfacet
  facet normal 0.535835 0.844323 -0
    outer loop
      vertex -2.23534 -2.75034 1
      vertex -3.34647 -2.04518 7
      vertex -2.23534 -2.75034 7
    endloop
  endfacet
  facet normal 0.535835 0.844323 0
    outer loop
      vertex -3.34647 -2.04518 7
      vertex -2.23534 -2.75034 1
      vertex -3.34647 -2.04518 1
    endloop
  endfacet
  facet normal 0.728969 0.684547 0
    outer loop
      vertex -3.34647 -2.04518 7
      vertex -4.24733 -1.08586 1
      vertex -4.24733 -1.08586 7
    endloop
  endfacet
  facet normal 0.728969 0.684547 0
    outer loop
      vertex -4.24733 -1.08586 1
      vertex -3.34647 -2.04518 7
      vertex -3.34647 -2.04518 1
    endloop
  endfacet
  facet normal 0.876308 0.48175 0
    outer loop
      vertex -4.24733 -1.08586 7
      vertex -4.5 -0.626251 1
      vertex -4.5 -0.626251 7
    endloop
  endfacet
  facet normal 0.876308 0.48175 0
    outer loop
      vertex -4.5 -0.626251 1
      vertex -4.24733 -1.08586 7
      vertex -4.24733 -1.08586 1
    endloop
  endfacet
  facet normal 1 -0 0
    outer loop
      vertex -4.5 -0.626251 7
      vertex -4.5 4.62625 1
      vertex -4.5 4.62625 7
    endloop
  endfacet
  facet normal 1 0 0
    outer loop
      vertex -4.5 4.62625 1
      vertex -4.5 -0.626251 7
      vertex -4.5 -0.626251 1
    endloop
  endfacet
  facet normal 0.876309 -0.48175 0
    outer loop
      vertex -4.5 4.62625 7
      vertex -4.24733 5.08586 1
      vertex -4.24733 5.08586 7
    endloop
  endfacet
  facet normal 0.876309 -0.48175 0
    outer loop
      vertex -4.24733 5.08586 1
      vertex -4.5 4.62625 7
      vertex -4.5 4.62625 1
    endloop
  endfacet
  facet normal 0.728969 -0.684547 0
    outer loop
      vertex -4.24733 5.08586 7
      vertex -3.34647 6.04518 1
      vertex -3.34647 6.04518 7
    endloop
  endfacet
  facet normal 0.728969 -0.684547 0
    outer loop
      vertex -3.34647 6.04518 1
      vertex -4.24733 5.08586 7
      vertex -4.24733 5.08586 1
    endloop
  endfacet
  facet normal 0.535835 -0.844323 0
    outer loop
      vertex -3.34647 6.04518 1
      vertex -2.23534 6.75034 7
      vertex -3.34647 6.04518 7
    endloop
  endfacet
  facet normal 0.535835 -0.844323 0
    outer loop
      vertex -2.23534 6.75034 7
      vertex -3.34647 6.04518 1
      vertex -2.23534 6.75034 1
    endloop
  endfacet
  facet normal 0.309012 -0.951058 0
    outer loop
      vertex -2.23534 6.75034 1
      vertex -0.983749 7.157 7
      vertex -2.23534 6.75034 7
    endloop
  endfacet
  facet normal 0.309012 -0.951058 0
    outer loop
      vertex -0.983749 7.157 7
      vertex -2.23534 6.75034 1
      vertex -0.983749 7.157 1
    endloop
  endfacet
  facet normal 0.0627972 -0.998026 0
    outer loop
      vertex -0.983749 7.157 1
      vertex 0.329636 7.23964 7
      vertex -0.983749 7.157 7
    endloop
  endfacet
  facet normal 0.0627972 -0.998026 0
    outer loop
      vertex 0.329636 7.23964 7
      vertex -0.983749 7.157 1
      vertex 0.329636 7.23964 1
    endloop
  endfacet
  facet normal -0.187385 -0.982286 0
    outer loop
      vertex 0.329636 7.23964 1
      vertex 1.62233 6.99304 7
      vertex 0.329636 7.23964 7
    endloop
  endfacet
  facet normal -0.187385 -0.982286 -0
    outer loop
      vertex 1.62233 6.99304 7
      vertex 0.329636 7.23964 1
      vertex 1.62233 6.99304 1
    endloop
  endfacet
  facet normal -0.425783 -0.904825 0
    outer loop
      vertex 1.62233 6.99304 1
      vertex 2.81308 6.43271 7
      vertex 1.62233 6.99304 7
    endloop
  endfacet
  facet normal -0.425783 -0.904825 -0
    outer loop
      vertex 2.81308 6.43271 7
      vertex 1.62233 6.99304 1
      vertex 2.81308 6.43271 1
    endloop
  endfacet
  facet normal -0.637422 -0.770515 0
    outer loop
      vertex 2.81308 6.43271 1
      vertex 3.82707 5.59387 7
      vertex 2.81308 6.43271 7
    endloop
  endfacet
  facet normal -0.637422 -0.770515 -0
    outer loop
      vertex 3.82707 5.59387 7
      vertex 2.81308 6.43271 1
      vertex 3.82707 5.59387 1
    endloop
  endfacet
  facet normal -0.809014 -0.58779 0
    outer loop
      vertex 4.6006 4.52921 1
      vertex 3.82707 5.59387 7
      vertex 3.82707 5.59387 1
    endloop
  endfacet
  facet normal -0.809014 -0.58779 0
    outer loop
      vertex 3.82707 5.59387 7
      vertex 4.6006 4.52921 1
      vertex 4.6006 4.52921 7
    endloop
  endfacet
  facet normal -0.929777 -0.368122 0
    outer loop
      vertex 5.08505 3.30562 1
      vertex 4.6006 4.52921 7
      vertex 4.6006 4.52921 1
    endloop
  endfacet
  facet normal -0.929777 -0.368122 0
    outer loop
      vertex 4.6006 4.52921 7
      vertex 5.08505 3.30562 1
      vertex 5.08505 3.30562 7
    endloop
  endfacet
  facet normal -0.992114 -0.125342 0
    outer loop
      vertex 5.25 2 1
      vertex 5.08505 3.30562 7
      vertex 5.08505 3.30562 1
    endloop
  endfacet
  facet normal -0.992114 -0.125342 0
    outer loop
      vertex 5.08505 3.30562 7
      vertex 5.25 2 1
      vertex 5.25 2 7
    endloop
  endfacet
  facet normal -0.992114 0.125342 0
    outer loop
      vertex 5.08505 0.694382 1
      vertex 5.25 2 7
      vertex 5.25 2 1
    endloop
  endfacet
  facet normal -0.992114 0.125342 0
    outer loop
      vertex 5.25 2 7
      vertex 5.08505 0.694382 1
      vertex 5.08505 0.694382 7
    endloop
  endfacet
  facet normal -0.929777 0.368123 0
    outer loop
      vertex 4.6006 -0.529205 1
      vertex 5.08505 0.694382 7
      vertex 5.08505 0.694382 1
    endloop
  endfacet
  facet normal -0.929777 0.368123 0
    outer loop
      vertex 5.08505 0.694382 7
      vertex 4.6006 -0.529205 1
      vertex 4.6006 -0.529205 7
    endloop
  endfacet
  facet normal -0.809015 0.587788 0
    outer loop
      vertex 3.82707 -1.59387 1
      vertex 4.6006 -0.529205 7
      vertex 4.6006 -0.529205 1
    endloop
  endfacet
  facet normal -0.809015 0.587788 0
    outer loop
      vertex 4.6006 -0.529205 7
      vertex 3.82707 -1.59387 1
      vertex 3.82707 -1.59387 7
    endloop
  endfacet
  facet normal -0.637422 0.770515 0
    outer loop
      vertex 3.82707 -1.59387 1
      vertex 2.81308 -2.43271 7
      vertex 3.82707 -1.59387 7
    endloop
  endfacet
  facet normal -0.637422 0.770515 0
    outer loop
      vertex 2.81308 -2.43271 7
      vertex 3.82707 -1.59387 1
      vertex 2.81308 -2.43271 1
    endloop
  endfacet
  facet normal -0.425783 0.904825 0
    outer loop
      vertex 2.81308 -2.43271 1
      vertex 1.62233 -2.99304 7
      vertex 2.81308 -2.43271 7
    endloop
  endfacet
  facet normal -0.425783 0.904825 0
    outer loop
      vertex 1.62233 -2.99304 7
      vertex 2.81308 -2.43271 1
      vertex 1.62233 -2.99304 1
    endloop
  endfacet
  facet normal -0.187385 0.982286 0
    outer loop
      vertex 1.62233 -2.99304 1
      vertex 0.329636 -3.23964 7
      vertex 1.62233 -2.99304 7
    endloop
  endfacet
  facet normal -0.187385 0.982286 0
    outer loop
      vertex 0.329636 -3.23964 7
      vertex 1.62233 -2.99304 1
      vertex 0.329636 -3.23964 1
    endloop
  endfacet
  facet normal 0.0627972 0.998026 -0
    outer loop
      vertex 0.329636 -3.23964 1
      vertex -0.983749 -3.157 7
      vertex 0.329636 -3.23964 7
    endloop
  endfacet
  facet normal 0.0627972 0.998026 0
    outer loop
      vertex -0.983749 -3.157 7
      vertex 0.329636 -3.23964 1
      vertex -0.983749 -3.157 1
    endloop
  endfacet
endsolid OpenSCAD_Model
